G04 MADE WITH FRITZING*
G04 WWW.FRITZING.ORG*
G04 DOUBLE SIDED*
G04 HOLES PLATED*
G04 CONTOUR ON CENTER OF CONTOUR VECTOR*
%ASAXBY*%
%FSLAX23Y23*%
%MOIN*%
%OFA0B0*%
%SFA1.0B1.0*%
%ADD10C,0.090000*%
%ADD11C,0.049370*%
%ADD12C,0.000100*%
%ADD13C,0.030000*%
%LNMASK0*%
G90*
G70*
G54D10*
X533Y2445D03*
X670Y2591D03*
X2142Y2808D03*
X2319Y2714D03*
X1285Y2904D03*
X1483Y2928D03*
G54D11*
X1332Y282D03*
X1188Y210D03*
X372Y834D03*
X1188Y138D03*
X1572Y162D03*
G54D12*
G36*
X491Y2444D02*
X532Y2487D01*
X576Y2447D01*
X535Y2403D01*
X491Y2444D01*
G37*
G54D13*
X491Y2444D02*
X532Y2487D01*
X576Y2447D01*
X535Y2403D01*
X491Y2444D01*
D02*
G54D12*
G36*
X2130Y2849D02*
X2183Y2821D01*
X2155Y2768D01*
X2102Y2796D01*
X2130Y2849D01*
G37*
G54D13*
X2130Y2849D02*
X2183Y2821D01*
X2155Y2768D01*
X2102Y2796D01*
X2130Y2849D01*
D02*
G54D12*
G36*
X1252Y2930D02*
X1311Y2937D01*
X1318Y2878D01*
X1259Y2870D01*
X1252Y2930D01*
G37*
G54D13*
X1252Y2930D02*
X1311Y2937D01*
X1318Y2878D01*
X1259Y2870D01*
X1252Y2930D01*
D02*
G04 End of Mask0*
M02*