G04 MADE WITH FRITZING*
G04 WWW.FRITZING.ORG*
G04 DOUBLE SIDED*
G04 HOLES PLATED*
G04 CONTOUR ON CENTER OF CONTOUR VECTOR*
%ASAXBY*%
%FSLAX23Y23*%
%MOIN*%
%OFA0B0*%
%SFA1.0B1.0*%
%ADD10C,0.080000*%
%ADD11C,0.039370*%
%ADD12C,0.024000*%
%ADD13C,0.048000*%
%ADD14C,0.000100*%
%ADD15C,0.020000*%
%LNCOPPER1*%
G90*
G70*
G54D10*
X533Y2445D03*
X670Y2591D03*
X1285Y2904D03*
X1483Y2928D03*
X2142Y2808D03*
X2319Y2714D03*
G54D11*
X372Y834D03*
X1188Y210D03*
X1332Y282D03*
X1572Y162D03*
X1188Y138D03*
G54D12*
X1526Y252D02*
X1340Y280D01*
D02*
X1188Y217D02*
X1188Y278D01*
D02*
X408Y894D02*
X396Y882D01*
X396Y882D02*
X376Y841D01*
D02*
X1236Y265D02*
X1236Y258D01*
X1236Y258D02*
X1236Y162D01*
X1236Y162D02*
X1224Y162D01*
X1224Y162D02*
X1195Y142D01*
D02*
X1573Y169D02*
X1580Y223D01*
D02*
X455Y864D02*
X492Y786D01*
X492Y786D02*
X618Y609D01*
D02*
X618Y609D02*
X1068Y330D01*
X1068Y330D02*
X1140Y330D01*
X1140Y330D02*
X1140Y162D01*
X1140Y162D02*
X1181Y141D01*
G54D13*
D02*
X2311Y2733D02*
X2248Y2884D01*
D02*
X2248Y2884D02*
X2088Y2963D01*
D02*
X2088Y2963D02*
X1934Y2866D01*
D02*
X1934Y2866D02*
X1503Y2925D01*
D02*
X687Y2601D02*
X1074Y2813D01*
D02*
X1074Y2813D02*
X1194Y3000D01*
D02*
X1194Y3000D02*
X1467Y3038D01*
D02*
X1467Y3038D02*
X1481Y2948D01*
G54D14*
G36*
X1210Y332D02*
X1193Y271D01*
X1166Y279D01*
X1184Y340D01*
X1210Y332D01*
G37*
D02*
G36*
X1257Y318D02*
X1240Y258D01*
X1214Y265D01*
X1231Y326D01*
X1257Y318D01*
G37*
D02*
G36*
X1116Y269D02*
X1084Y155D01*
X1004Y178D01*
X1037Y292D01*
X1116Y269D01*
G37*
D02*
G36*
X1356Y200D02*
X1324Y86D01*
X1244Y109D01*
X1277Y223D01*
X1356Y200D01*
G37*
D02*
G36*
X1549Y282D02*
X1548Y218D01*
X1520Y219D01*
X1522Y282D01*
X1549Y282D01*
G37*
D02*
G36*
X1598Y281D02*
X1597Y218D01*
X1570Y218D01*
X1571Y281D01*
X1598Y281D01*
G37*
D02*
G36*
X1475Y196D02*
X1473Y78D01*
X1390Y79D01*
X1392Y198D01*
X1475Y196D01*
G37*
D02*
G36*
X1725Y192D02*
X1723Y74D01*
X1640Y75D01*
X1642Y193D01*
X1725Y192D01*
G37*
D02*
G36*
X461Y918D02*
X407Y886D01*
X392Y909D01*
X446Y942D01*
X461Y918D01*
G37*
D02*
G36*
X486Y876D02*
X432Y844D01*
X418Y867D01*
X472Y900D01*
X486Y876D01*
G37*
D02*
G36*
X349Y936D02*
X248Y875D01*
X205Y946D01*
X306Y1007D01*
X349Y936D01*
G37*
D02*
G36*
X478Y722D02*
X376Y661D01*
X334Y732D01*
X435Y793D01*
X478Y722D01*
G37*
D02*
G54D15*
X491Y2444D02*
X532Y2487D01*
X576Y2447D01*
X535Y2403D01*
X491Y2444D01*
D02*
X1252Y2930D02*
X1311Y2937D01*
X1318Y2878D01*
X1259Y2870D01*
X1252Y2930D01*
D02*
X2130Y2849D02*
X2183Y2821D01*
X2155Y2768D01*
X2102Y2796D01*
X2130Y2849D01*
D02*
G04 End of Copper1*
M02*