G04 MADE WITH FRITZING*
G04 WWW.FRITZING.ORG*
G04 DOUBLE SIDED*
G04 HOLES PLATED*
G04 CONTOUR ON CENTER OF CONTOUR VECTOR*
%ASAXBY*%
%FSLAX23Y23*%
%MOIN*%
%OFA0B0*%
%SFA1.0B1.0*%
%ADD10C,0.075000*%
%ADD11C,0.000100*%
%LNCOPPER1*%
G90*
G70*
G54D10*
X1394Y3025D03*
X718Y2747D03*
X2722Y2354D03*
X2872Y1132D03*
X338Y974D03*
X2511Y557D03*
G54D11*
G36*
X1550Y3092D02*
X1550Y3090D01*
X1512Y3090D01*
X1512Y3088D01*
X1484Y3088D01*
X1484Y3086D01*
X1462Y3086D01*
X1462Y3084D01*
X1444Y3084D01*
X1444Y3082D01*
X1426Y3082D01*
X1426Y3080D01*
X1410Y3080D01*
X1410Y3078D01*
X1394Y3078D01*
X1394Y3076D01*
X1382Y3076D01*
X1382Y3074D01*
X1368Y3074D01*
X1368Y3072D01*
X1356Y3072D01*
X1356Y3070D01*
X1344Y3070D01*
X1344Y3068D01*
X1334Y3068D01*
X1334Y3066D01*
X1322Y3066D01*
X1322Y3064D01*
X1312Y3064D01*
X1312Y3062D01*
X1302Y3062D01*
X1302Y3060D01*
X1292Y3060D01*
X1292Y3058D01*
X1284Y3058D01*
X1284Y3056D01*
X1274Y3056D01*
X1274Y3054D01*
X1266Y3054D01*
X1266Y3052D01*
X1256Y3052D01*
X1256Y3050D01*
X1248Y3050D01*
X1248Y3048D01*
X1240Y3048D01*
X1240Y3046D01*
X1232Y3046D01*
X1232Y3044D01*
X1224Y3044D01*
X1224Y3042D01*
X1216Y3042D01*
X1216Y3040D01*
X1210Y3040D01*
X1210Y3038D01*
X1202Y3038D01*
X1202Y3036D01*
X1194Y3036D01*
X1194Y3034D01*
X1188Y3034D01*
X1188Y3032D01*
X1180Y3032D01*
X1180Y3030D01*
X1174Y3030D01*
X1174Y3028D01*
X1166Y3028D01*
X1166Y3026D01*
X1160Y3026D01*
X1160Y3024D01*
X1154Y3024D01*
X1154Y3022D01*
X1148Y3022D01*
X1148Y3020D01*
X1142Y3020D01*
X1142Y3018D01*
X1134Y3018D01*
X1134Y3016D01*
X1128Y3016D01*
X1128Y3014D01*
X1122Y3014D01*
X1122Y3012D01*
X1116Y3012D01*
X1116Y3010D01*
X1110Y3010D01*
X1110Y3008D01*
X1104Y3008D01*
X1104Y3006D01*
X1100Y3006D01*
X1100Y3004D01*
X1094Y3004D01*
X1094Y3002D01*
X1088Y3002D01*
X1088Y3000D01*
X1082Y3000D01*
X1082Y2998D01*
X1076Y2998D01*
X1076Y2996D01*
X1072Y2996D01*
X1072Y2994D01*
X1066Y2994D01*
X1066Y2992D01*
X1060Y2992D01*
X1060Y2990D01*
X1056Y2990D01*
X1056Y2988D01*
X1050Y2988D01*
X1050Y2986D01*
X1046Y2986D01*
X1046Y2984D01*
X1040Y2984D01*
X1040Y2982D01*
X1036Y2982D01*
X1036Y2980D01*
X1030Y2980D01*
X1030Y2978D01*
X1026Y2978D01*
X1026Y2976D01*
X1020Y2976D01*
X1020Y2974D01*
X1016Y2974D01*
X1016Y2972D01*
X1010Y2972D01*
X1010Y2970D01*
X1006Y2970D01*
X1006Y2968D01*
X1002Y2968D01*
X1002Y2966D01*
X996Y2966D01*
X996Y2964D01*
X992Y2964D01*
X992Y2962D01*
X988Y2962D01*
X988Y2960D01*
X982Y2960D01*
X982Y2958D01*
X978Y2958D01*
X978Y2956D01*
X974Y2956D01*
X974Y2954D01*
X970Y2954D01*
X970Y2952D01*
X966Y2952D01*
X966Y2950D01*
X960Y2950D01*
X960Y2948D01*
X956Y2948D01*
X956Y2946D01*
X952Y2946D01*
X952Y2944D01*
X948Y2944D01*
X948Y2942D01*
X944Y2942D01*
X944Y2940D01*
X940Y2940D01*
X940Y2938D01*
X936Y2938D01*
X936Y2936D01*
X932Y2936D01*
X932Y2934D01*
X928Y2934D01*
X928Y2932D01*
X924Y2932D01*
X924Y2930D01*
X920Y2930D01*
X920Y2928D01*
X916Y2928D01*
X916Y2908D01*
X918Y2908D01*
X918Y2906D01*
X922Y2906D01*
X922Y2904D01*
X924Y2904D01*
X924Y2902D01*
X928Y2902D01*
X928Y2900D01*
X1772Y2900D01*
X1772Y2902D01*
X1766Y2902D01*
X1766Y2904D01*
X1760Y2904D01*
X1760Y2906D01*
X1756Y2906D01*
X1756Y2908D01*
X1754Y2908D01*
X1754Y2910D01*
X1752Y2910D01*
X1752Y2912D01*
X1748Y2912D01*
X1748Y2914D01*
X1746Y2914D01*
X1746Y2916D01*
X1744Y2916D01*
X1744Y2920D01*
X1742Y2920D01*
X1742Y2922D01*
X1740Y2922D01*
X1740Y2924D01*
X1738Y2924D01*
X1738Y2928D01*
X1736Y2928D01*
X1736Y2932D01*
X1734Y2932D01*
X1734Y2940D01*
X1732Y2940D01*
X1732Y3044D01*
X1734Y3044D01*
X1734Y3050D01*
X1736Y3050D01*
X1736Y3054D01*
X1738Y3054D01*
X1738Y3058D01*
X1740Y3058D01*
X1740Y3078D01*
X1738Y3078D01*
X1738Y3080D01*
X1722Y3080D01*
X1722Y3082D01*
X1704Y3082D01*
X1704Y3084D01*
X1684Y3084D01*
X1684Y3086D01*
X1662Y3086D01*
X1662Y3088D01*
X1636Y3088D01*
X1636Y3090D01*
X1598Y3090D01*
X1598Y3092D01*
X1550Y3092D01*
G37*
D02*
G36*
X1916Y3040D02*
X1916Y2946D01*
X1914Y2946D01*
X1914Y2936D01*
X1912Y2936D01*
X1912Y2932D01*
X1910Y2932D01*
X1910Y2928D01*
X1908Y2928D01*
X1908Y2924D01*
X1906Y2924D01*
X1906Y2920D01*
X1904Y2920D01*
X1904Y2918D01*
X1902Y2918D01*
X1902Y2916D01*
X1900Y2916D01*
X1900Y2914D01*
X1898Y2914D01*
X1898Y2912D01*
X1896Y2912D01*
X1896Y2910D01*
X1892Y2910D01*
X1892Y2908D01*
X1890Y2908D01*
X1890Y2906D01*
X1886Y2906D01*
X1886Y2904D01*
X1882Y2904D01*
X1882Y2902D01*
X1876Y2902D01*
X1876Y2900D01*
X2282Y2900D01*
X2282Y2902D01*
X2278Y2902D01*
X2278Y2904D01*
X2274Y2904D01*
X2274Y2906D01*
X2270Y2906D01*
X2270Y2908D01*
X2268Y2908D01*
X2268Y2910D01*
X2264Y2910D01*
X2264Y2912D01*
X2260Y2912D01*
X2260Y2914D01*
X2256Y2914D01*
X2256Y2916D01*
X2252Y2916D01*
X2252Y2918D01*
X2248Y2918D01*
X2248Y2920D01*
X2244Y2920D01*
X2244Y2922D01*
X2240Y2922D01*
X2240Y2924D01*
X2236Y2924D01*
X2236Y2926D01*
X2232Y2926D01*
X2232Y2928D01*
X2228Y2928D01*
X2228Y2930D01*
X2224Y2930D01*
X2224Y2932D01*
X2220Y2932D01*
X2220Y2934D01*
X2216Y2934D01*
X2216Y2936D01*
X2212Y2936D01*
X2212Y2938D01*
X2208Y2938D01*
X2208Y2940D01*
X2204Y2940D01*
X2204Y2942D01*
X2200Y2942D01*
X2200Y2944D01*
X2196Y2944D01*
X2196Y2946D01*
X2192Y2946D01*
X2192Y2948D01*
X2186Y2948D01*
X2186Y2950D01*
X2182Y2950D01*
X2182Y2952D01*
X2178Y2952D01*
X2178Y2954D01*
X2174Y2954D01*
X2174Y2956D01*
X2170Y2956D01*
X2170Y2958D01*
X2164Y2958D01*
X2164Y2960D01*
X2160Y2960D01*
X2160Y2962D01*
X2156Y2962D01*
X2156Y2964D01*
X2150Y2964D01*
X2150Y2966D01*
X2146Y2966D01*
X2146Y2968D01*
X2142Y2968D01*
X2142Y2970D01*
X2136Y2970D01*
X2136Y2972D01*
X2132Y2972D01*
X2132Y2974D01*
X2128Y2974D01*
X2128Y2976D01*
X2122Y2976D01*
X2122Y2978D01*
X2118Y2978D01*
X2118Y2980D01*
X2112Y2980D01*
X2112Y2982D01*
X2108Y2982D01*
X2108Y2984D01*
X2102Y2984D01*
X2102Y2986D01*
X2098Y2986D01*
X2098Y2988D01*
X2092Y2988D01*
X2092Y2990D01*
X2086Y2990D01*
X2086Y2992D01*
X2082Y2992D01*
X2082Y2994D01*
X2076Y2994D01*
X2076Y2996D01*
X2070Y2996D01*
X2070Y2998D01*
X2066Y2998D01*
X2066Y3000D01*
X2060Y3000D01*
X2060Y3002D01*
X2054Y3002D01*
X2054Y3004D01*
X2048Y3004D01*
X2048Y3006D01*
X2042Y3006D01*
X2042Y3008D01*
X2036Y3008D01*
X2036Y3010D01*
X2030Y3010D01*
X2030Y3012D01*
X2024Y3012D01*
X2024Y3014D01*
X2020Y3014D01*
X2020Y3016D01*
X2012Y3016D01*
X2012Y3018D01*
X2006Y3018D01*
X2006Y3020D01*
X2000Y3020D01*
X2000Y3022D01*
X1994Y3022D01*
X1994Y3024D01*
X1988Y3024D01*
X1988Y3026D01*
X1980Y3026D01*
X1980Y3028D01*
X1974Y3028D01*
X1974Y3030D01*
X1968Y3030D01*
X1968Y3032D01*
X1960Y3032D01*
X1960Y3034D01*
X1952Y3034D01*
X1952Y3036D01*
X1946Y3036D01*
X1946Y3038D01*
X1938Y3038D01*
X1938Y3040D01*
X1916Y3040D01*
G37*
D02*
G36*
X930Y2900D02*
X930Y2898D01*
X2286Y2898D01*
X2286Y2900D01*
X930Y2900D01*
G37*
D02*
G36*
X930Y2900D02*
X930Y2898D01*
X2286Y2898D01*
X2286Y2900D01*
X930Y2900D01*
G37*
D02*
G36*
X932Y2898D02*
X932Y2896D01*
X934Y2896D01*
X934Y2894D01*
X936Y2894D01*
X936Y2892D01*
X938Y2892D01*
X938Y2888D01*
X940Y2888D01*
X940Y2884D01*
X1682Y2884D01*
X1682Y2882D01*
X1712Y2882D01*
X1712Y2880D01*
X1734Y2880D01*
X1734Y2878D01*
X1754Y2878D01*
X1754Y2876D01*
X1770Y2876D01*
X1770Y2874D01*
X1786Y2874D01*
X1786Y2872D01*
X1800Y2872D01*
X1800Y2870D01*
X1812Y2870D01*
X1812Y2868D01*
X1824Y2868D01*
X1824Y2866D01*
X1836Y2866D01*
X1836Y2864D01*
X1848Y2864D01*
X1848Y2862D01*
X1858Y2862D01*
X1858Y2860D01*
X1868Y2860D01*
X1868Y2858D01*
X1878Y2858D01*
X1878Y2856D01*
X1886Y2856D01*
X1886Y2854D01*
X1896Y2854D01*
X1896Y2852D01*
X1904Y2852D01*
X1904Y2850D01*
X1912Y2850D01*
X1912Y2848D01*
X1920Y2848D01*
X1920Y2846D01*
X1928Y2846D01*
X1928Y2844D01*
X1936Y2844D01*
X1936Y2842D01*
X1944Y2842D01*
X1944Y2840D01*
X1950Y2840D01*
X1950Y2838D01*
X1958Y2838D01*
X1958Y2836D01*
X1966Y2836D01*
X1966Y2834D01*
X1972Y2834D01*
X1972Y2832D01*
X1978Y2832D01*
X1978Y2830D01*
X1986Y2830D01*
X1986Y2828D01*
X1992Y2828D01*
X1992Y2826D01*
X1998Y2826D01*
X1998Y2824D01*
X2004Y2824D01*
X2004Y2822D01*
X2010Y2822D01*
X2010Y2820D01*
X2016Y2820D01*
X2016Y2818D01*
X2022Y2818D01*
X2022Y2816D01*
X2028Y2816D01*
X2028Y2814D01*
X2034Y2814D01*
X2034Y2812D01*
X2040Y2812D01*
X2040Y2810D01*
X2046Y2810D01*
X2046Y2808D01*
X2050Y2808D01*
X2050Y2806D01*
X2056Y2806D01*
X2056Y2804D01*
X2062Y2804D01*
X2062Y2802D01*
X2066Y2802D01*
X2066Y2800D01*
X2072Y2800D01*
X2072Y2798D01*
X2076Y2798D01*
X2076Y2796D01*
X2082Y2796D01*
X2082Y2794D01*
X2086Y2794D01*
X2086Y2792D01*
X2092Y2792D01*
X2092Y2790D01*
X2096Y2790D01*
X2096Y2788D01*
X2102Y2788D01*
X2102Y2786D01*
X2106Y2786D01*
X2106Y2784D01*
X2112Y2784D01*
X2112Y2782D01*
X2116Y2782D01*
X2116Y2780D01*
X2120Y2780D01*
X2120Y2778D01*
X2124Y2778D01*
X2124Y2776D01*
X2130Y2776D01*
X2130Y2774D01*
X2134Y2774D01*
X2134Y2772D01*
X2138Y2772D01*
X2138Y2770D01*
X2142Y2770D01*
X2142Y2768D01*
X2148Y2768D01*
X2148Y2766D01*
X2152Y2766D01*
X2152Y2764D01*
X2156Y2764D01*
X2156Y2762D01*
X2160Y2762D01*
X2160Y2760D01*
X2164Y2760D01*
X2164Y2758D01*
X2168Y2758D01*
X2168Y2756D01*
X2172Y2756D01*
X2172Y2754D01*
X2176Y2754D01*
X2176Y2752D01*
X2180Y2752D01*
X2180Y2750D01*
X2184Y2750D01*
X2184Y2748D01*
X2188Y2748D01*
X2188Y2746D01*
X2192Y2746D01*
X2192Y2744D01*
X2196Y2744D01*
X2196Y2742D01*
X2200Y2742D01*
X2200Y2740D01*
X2204Y2740D01*
X2204Y2738D01*
X2208Y2738D01*
X2208Y2736D01*
X2212Y2736D01*
X2212Y2734D01*
X2214Y2734D01*
X2214Y2732D01*
X2218Y2732D01*
X2218Y2730D01*
X2222Y2730D01*
X2222Y2728D01*
X2226Y2728D01*
X2226Y2726D01*
X2230Y2726D01*
X2230Y2724D01*
X2234Y2724D01*
X2234Y2722D01*
X2236Y2722D01*
X2236Y2720D01*
X2240Y2720D01*
X2240Y2718D01*
X2244Y2718D01*
X2244Y2716D01*
X2248Y2716D01*
X2248Y2714D01*
X2250Y2714D01*
X2250Y2712D01*
X2254Y2712D01*
X2254Y2710D01*
X2258Y2710D01*
X2258Y2708D01*
X2260Y2708D01*
X2260Y2706D01*
X2264Y2706D01*
X2264Y2704D01*
X2268Y2704D01*
X2268Y2702D01*
X2270Y2702D01*
X2270Y2700D01*
X2274Y2700D01*
X2274Y2698D01*
X2278Y2698D01*
X2278Y2696D01*
X2280Y2696D01*
X2280Y2694D01*
X2284Y2694D01*
X2284Y2692D01*
X2288Y2692D01*
X2288Y2690D01*
X2290Y2690D01*
X2290Y2688D01*
X2294Y2688D01*
X2294Y2686D01*
X2296Y2686D01*
X2296Y2684D01*
X2300Y2684D01*
X2300Y2682D01*
X2302Y2682D01*
X2302Y2680D01*
X2306Y2680D01*
X2306Y2678D01*
X2308Y2678D01*
X2308Y2676D01*
X2312Y2676D01*
X2312Y2674D01*
X2314Y2674D01*
X2314Y2672D01*
X2318Y2672D01*
X2318Y2670D01*
X2322Y2670D01*
X2322Y2668D01*
X2324Y2668D01*
X2324Y2666D01*
X2326Y2666D01*
X2326Y2664D01*
X2330Y2664D01*
X2330Y2662D01*
X2332Y2662D01*
X2332Y2660D01*
X2336Y2660D01*
X2336Y2658D01*
X2338Y2658D01*
X2338Y2656D01*
X2342Y2656D01*
X2342Y2654D01*
X2344Y2654D01*
X2344Y2652D01*
X2348Y2652D01*
X2348Y2650D01*
X2350Y2650D01*
X2350Y2648D01*
X2352Y2648D01*
X2352Y2646D01*
X2356Y2646D01*
X2356Y2644D01*
X2358Y2644D01*
X2358Y2642D01*
X2360Y2642D01*
X2360Y2640D01*
X2364Y2640D01*
X2364Y2638D01*
X2366Y2638D01*
X2366Y2636D01*
X2370Y2636D01*
X2370Y2634D01*
X2372Y2634D01*
X2372Y2632D01*
X2374Y2632D01*
X2374Y2630D01*
X2378Y2630D01*
X2378Y2628D01*
X2380Y2628D01*
X2380Y2626D01*
X2382Y2626D01*
X2382Y2624D01*
X2384Y2624D01*
X2384Y2622D01*
X2388Y2622D01*
X2388Y2620D01*
X2390Y2620D01*
X2390Y2618D01*
X2392Y2618D01*
X2392Y2616D01*
X2396Y2616D01*
X2396Y2614D01*
X2398Y2614D01*
X2398Y2612D01*
X2400Y2612D01*
X2400Y2610D01*
X2402Y2610D01*
X2402Y2608D01*
X2406Y2608D01*
X2406Y2606D01*
X2408Y2606D01*
X2408Y2604D01*
X2410Y2604D01*
X2410Y2602D01*
X2412Y2602D01*
X2412Y2600D01*
X2416Y2600D01*
X2416Y2598D01*
X2418Y2598D01*
X2418Y2596D01*
X2420Y2596D01*
X2420Y2594D01*
X2422Y2594D01*
X2422Y2592D01*
X2426Y2592D01*
X2426Y2590D01*
X2428Y2590D01*
X2428Y2588D01*
X2430Y2588D01*
X2430Y2586D01*
X2432Y2586D01*
X2432Y2584D01*
X2434Y2584D01*
X2434Y2582D01*
X2436Y2582D01*
X2436Y2580D01*
X2440Y2580D01*
X2440Y2578D01*
X2442Y2578D01*
X2442Y2576D01*
X2444Y2576D01*
X2444Y2574D01*
X2446Y2574D01*
X2446Y2572D01*
X2448Y2572D01*
X2448Y2570D01*
X2450Y2570D01*
X2450Y2568D01*
X2454Y2568D01*
X2454Y2566D01*
X2456Y2566D01*
X2456Y2564D01*
X2458Y2564D01*
X2458Y2562D01*
X2460Y2562D01*
X2460Y2560D01*
X2462Y2560D01*
X2462Y2558D01*
X2464Y2558D01*
X2464Y2556D01*
X2466Y2556D01*
X2466Y2554D01*
X2468Y2554D01*
X2468Y2552D01*
X2470Y2552D01*
X2470Y2550D01*
X2474Y2550D01*
X2474Y2548D01*
X2476Y2548D01*
X2476Y2546D01*
X2478Y2546D01*
X2478Y2544D01*
X2480Y2544D01*
X2480Y2542D01*
X2482Y2542D01*
X2482Y2540D01*
X2484Y2540D01*
X2484Y2538D01*
X2486Y2538D01*
X2486Y2536D01*
X2488Y2536D01*
X2488Y2534D01*
X2490Y2534D01*
X2490Y2532D01*
X2492Y2532D01*
X2492Y2530D01*
X2494Y2530D01*
X2494Y2528D01*
X2496Y2528D01*
X2496Y2526D01*
X2498Y2526D01*
X2498Y2524D01*
X2500Y2524D01*
X2500Y2522D01*
X2502Y2522D01*
X2502Y2520D01*
X2504Y2520D01*
X2504Y2518D01*
X2506Y2518D01*
X2506Y2516D01*
X2508Y2516D01*
X2508Y2514D01*
X2510Y2514D01*
X2510Y2512D01*
X2512Y2512D01*
X2512Y2510D01*
X2514Y2510D01*
X2514Y2508D01*
X2516Y2508D01*
X2516Y2506D01*
X2518Y2506D01*
X2518Y2504D01*
X2520Y2504D01*
X2520Y2502D01*
X2522Y2502D01*
X2522Y2500D01*
X2524Y2500D01*
X2524Y2498D01*
X2526Y2498D01*
X2526Y2496D01*
X2528Y2496D01*
X2528Y2494D01*
X2530Y2494D01*
X2530Y2492D01*
X2532Y2492D01*
X2532Y2490D01*
X2534Y2490D01*
X2534Y2488D01*
X2536Y2488D01*
X2536Y2486D01*
X2538Y2486D01*
X2538Y2484D01*
X2540Y2484D01*
X2540Y2482D01*
X2542Y2482D01*
X2542Y2480D01*
X2544Y2480D01*
X2544Y2478D01*
X2546Y2478D01*
X2546Y2474D01*
X2548Y2474D01*
X2548Y2472D01*
X2550Y2472D01*
X2550Y2470D01*
X2552Y2470D01*
X2552Y2468D01*
X2554Y2468D01*
X2554Y2466D01*
X2556Y2466D01*
X2556Y2464D01*
X2558Y2464D01*
X2558Y2462D01*
X2560Y2462D01*
X2560Y2460D01*
X2562Y2460D01*
X2562Y2458D01*
X2582Y2458D01*
X2582Y2546D01*
X2584Y2546D01*
X2584Y2554D01*
X2586Y2554D01*
X2586Y2560D01*
X2588Y2560D01*
X2588Y2564D01*
X2590Y2564D01*
X2590Y2568D01*
X2592Y2568D01*
X2592Y2570D01*
X2594Y2570D01*
X2594Y2572D01*
X2596Y2572D01*
X2596Y2576D01*
X2598Y2576D01*
X2598Y2578D01*
X2600Y2578D01*
X2600Y2580D01*
X2604Y2580D01*
X2604Y2582D01*
X2606Y2582D01*
X2606Y2584D01*
X2610Y2584D01*
X2610Y2586D01*
X2614Y2586D01*
X2614Y2588D01*
X2618Y2588D01*
X2618Y2590D01*
X2626Y2590D01*
X2626Y2592D01*
X2660Y2592D01*
X2660Y2612D01*
X2658Y2612D01*
X2658Y2614D01*
X2656Y2614D01*
X2656Y2616D01*
X2654Y2616D01*
X2654Y2618D01*
X2652Y2618D01*
X2652Y2620D01*
X2650Y2620D01*
X2650Y2622D01*
X2648Y2622D01*
X2648Y2624D01*
X2646Y2624D01*
X2646Y2626D01*
X2644Y2626D01*
X2644Y2628D01*
X2642Y2628D01*
X2642Y2630D01*
X2640Y2630D01*
X2640Y2632D01*
X2638Y2632D01*
X2638Y2634D01*
X2636Y2634D01*
X2636Y2636D01*
X2634Y2636D01*
X2634Y2638D01*
X2632Y2638D01*
X2632Y2640D01*
X2630Y2640D01*
X2630Y2642D01*
X2628Y2642D01*
X2628Y2644D01*
X2626Y2644D01*
X2626Y2646D01*
X2624Y2646D01*
X2624Y2648D01*
X2622Y2648D01*
X2622Y2650D01*
X2620Y2650D01*
X2620Y2652D01*
X2618Y2652D01*
X2618Y2654D01*
X2616Y2654D01*
X2616Y2656D01*
X2614Y2656D01*
X2614Y2658D01*
X2612Y2658D01*
X2612Y2660D01*
X2610Y2660D01*
X2610Y2662D01*
X2608Y2662D01*
X2608Y2664D01*
X2606Y2664D01*
X2606Y2666D01*
X2604Y2666D01*
X2604Y2668D01*
X2602Y2668D01*
X2602Y2670D01*
X2600Y2670D01*
X2600Y2672D01*
X2596Y2672D01*
X2596Y2674D01*
X2594Y2674D01*
X2594Y2676D01*
X2592Y2676D01*
X2592Y2678D01*
X2590Y2678D01*
X2590Y2680D01*
X2588Y2680D01*
X2588Y2682D01*
X2586Y2682D01*
X2586Y2684D01*
X2584Y2684D01*
X2584Y2686D01*
X2582Y2686D01*
X2582Y2688D01*
X2580Y2688D01*
X2580Y2690D01*
X2578Y2690D01*
X2578Y2692D01*
X2576Y2692D01*
X2576Y2694D01*
X2572Y2694D01*
X2572Y2696D01*
X2570Y2696D01*
X2570Y2698D01*
X2568Y2698D01*
X2568Y2700D01*
X2566Y2700D01*
X2566Y2702D01*
X2564Y2702D01*
X2564Y2704D01*
X2562Y2704D01*
X2562Y2706D01*
X2560Y2706D01*
X2560Y2708D01*
X2558Y2708D01*
X2558Y2710D01*
X2554Y2710D01*
X2554Y2712D01*
X2552Y2712D01*
X2552Y2714D01*
X2550Y2714D01*
X2550Y2716D01*
X2548Y2716D01*
X2548Y2718D01*
X2546Y2718D01*
X2546Y2720D01*
X2544Y2720D01*
X2544Y2722D01*
X2540Y2722D01*
X2540Y2724D01*
X2538Y2724D01*
X2538Y2726D01*
X2536Y2726D01*
X2536Y2728D01*
X2534Y2728D01*
X2534Y2730D01*
X2532Y2730D01*
X2532Y2732D01*
X2528Y2732D01*
X2528Y2734D01*
X2526Y2734D01*
X2526Y2736D01*
X2524Y2736D01*
X2524Y2738D01*
X2522Y2738D01*
X2522Y2740D01*
X2520Y2740D01*
X2520Y2742D01*
X2516Y2742D01*
X2516Y2744D01*
X2514Y2744D01*
X2514Y2746D01*
X2512Y2746D01*
X2512Y2748D01*
X2510Y2748D01*
X2510Y2750D01*
X2506Y2750D01*
X2506Y2752D01*
X2504Y2752D01*
X2504Y2754D01*
X2502Y2754D01*
X2502Y2756D01*
X2500Y2756D01*
X2500Y2758D01*
X2496Y2758D01*
X2496Y2760D01*
X2494Y2760D01*
X2494Y2762D01*
X2492Y2762D01*
X2492Y2764D01*
X2490Y2764D01*
X2490Y2766D01*
X2486Y2766D01*
X2486Y2768D01*
X2484Y2768D01*
X2484Y2770D01*
X2482Y2770D01*
X2482Y2772D01*
X2478Y2772D01*
X2478Y2774D01*
X2476Y2774D01*
X2476Y2776D01*
X2474Y2776D01*
X2474Y2778D01*
X2470Y2778D01*
X2470Y2780D01*
X2468Y2780D01*
X2468Y2782D01*
X2466Y2782D01*
X2466Y2784D01*
X2462Y2784D01*
X2462Y2786D01*
X2460Y2786D01*
X2460Y2788D01*
X2458Y2788D01*
X2458Y2790D01*
X2454Y2790D01*
X2454Y2792D01*
X2452Y2792D01*
X2452Y2794D01*
X2450Y2794D01*
X2450Y2796D01*
X2446Y2796D01*
X2446Y2798D01*
X2444Y2798D01*
X2444Y2800D01*
X2440Y2800D01*
X2440Y2802D01*
X2438Y2802D01*
X2438Y2804D01*
X2436Y2804D01*
X2436Y2806D01*
X2432Y2806D01*
X2432Y2808D01*
X2430Y2808D01*
X2430Y2810D01*
X2426Y2810D01*
X2426Y2812D01*
X2424Y2812D01*
X2424Y2814D01*
X2422Y2814D01*
X2422Y2816D01*
X2418Y2816D01*
X2418Y2818D01*
X2416Y2818D01*
X2416Y2820D01*
X2412Y2820D01*
X2412Y2822D01*
X2410Y2822D01*
X2410Y2824D01*
X2406Y2824D01*
X2406Y2826D01*
X2404Y2826D01*
X2404Y2828D01*
X2400Y2828D01*
X2400Y2830D01*
X2398Y2830D01*
X2398Y2832D01*
X2394Y2832D01*
X2394Y2834D01*
X2392Y2834D01*
X2392Y2836D01*
X2388Y2836D01*
X2388Y2838D01*
X2386Y2838D01*
X2386Y2840D01*
X2382Y2840D01*
X2382Y2842D01*
X2380Y2842D01*
X2380Y2844D01*
X2376Y2844D01*
X2376Y2846D01*
X2374Y2846D01*
X2374Y2848D01*
X2370Y2848D01*
X2370Y2850D01*
X2366Y2850D01*
X2366Y2852D01*
X2364Y2852D01*
X2364Y2854D01*
X2360Y2854D01*
X2360Y2856D01*
X2358Y2856D01*
X2358Y2858D01*
X2354Y2858D01*
X2354Y2860D01*
X2350Y2860D01*
X2350Y2862D01*
X2348Y2862D01*
X2348Y2864D01*
X2344Y2864D01*
X2344Y2866D01*
X2340Y2866D01*
X2340Y2868D01*
X2338Y2868D01*
X2338Y2870D01*
X2334Y2870D01*
X2334Y2872D01*
X2332Y2872D01*
X2332Y2874D01*
X2328Y2874D01*
X2328Y2876D01*
X2324Y2876D01*
X2324Y2878D01*
X2320Y2878D01*
X2320Y2880D01*
X2318Y2880D01*
X2318Y2882D01*
X2314Y2882D01*
X2314Y2884D01*
X2310Y2884D01*
X2310Y2886D01*
X2308Y2886D01*
X2308Y2888D01*
X2304Y2888D01*
X2304Y2890D01*
X2300Y2890D01*
X2300Y2892D01*
X2296Y2892D01*
X2296Y2894D01*
X2292Y2894D01*
X2292Y2896D01*
X2290Y2896D01*
X2290Y2898D01*
X932Y2898D01*
G37*
D02*
G36*
X942Y2884D02*
X942Y2880D01*
X944Y2880D01*
X944Y2876D01*
X946Y2876D01*
X946Y2866D01*
X948Y2866D01*
X948Y2776D01*
X946Y2776D01*
X946Y2766D01*
X944Y2766D01*
X944Y2760D01*
X942Y2760D01*
X942Y2748D01*
X964Y2748D01*
X964Y2750D01*
X968Y2750D01*
X968Y2752D01*
X972Y2752D01*
X972Y2754D01*
X976Y2754D01*
X976Y2756D01*
X980Y2756D01*
X980Y2758D01*
X984Y2758D01*
X984Y2760D01*
X988Y2760D01*
X988Y2762D01*
X992Y2762D01*
X992Y2764D01*
X996Y2764D01*
X996Y2766D01*
X1000Y2766D01*
X1000Y2768D01*
X1004Y2768D01*
X1004Y2770D01*
X1010Y2770D01*
X1010Y2772D01*
X1014Y2772D01*
X1014Y2774D01*
X1018Y2774D01*
X1018Y2776D01*
X1022Y2776D01*
X1022Y2778D01*
X1028Y2778D01*
X1028Y2780D01*
X1032Y2780D01*
X1032Y2782D01*
X1036Y2782D01*
X1036Y2784D01*
X1042Y2784D01*
X1042Y2786D01*
X1046Y2786D01*
X1046Y2788D01*
X1050Y2788D01*
X1050Y2790D01*
X1056Y2790D01*
X1056Y2792D01*
X1060Y2792D01*
X1060Y2794D01*
X1066Y2794D01*
X1066Y2796D01*
X1070Y2796D01*
X1070Y2798D01*
X1076Y2798D01*
X1076Y2800D01*
X1080Y2800D01*
X1080Y2802D01*
X1086Y2802D01*
X1086Y2804D01*
X1092Y2804D01*
X1092Y2806D01*
X1098Y2806D01*
X1098Y2808D01*
X1102Y2808D01*
X1102Y2810D01*
X1108Y2810D01*
X1108Y2812D01*
X1114Y2812D01*
X1114Y2814D01*
X1120Y2814D01*
X1120Y2816D01*
X1126Y2816D01*
X1126Y2818D01*
X1132Y2818D01*
X1132Y2820D01*
X1138Y2820D01*
X1138Y2822D01*
X1144Y2822D01*
X1144Y2824D01*
X1150Y2824D01*
X1150Y2826D01*
X1156Y2826D01*
X1156Y2828D01*
X1162Y2828D01*
X1162Y2830D01*
X1168Y2830D01*
X1168Y2832D01*
X1176Y2832D01*
X1176Y2834D01*
X1182Y2834D01*
X1182Y2836D01*
X1190Y2836D01*
X1190Y2838D01*
X1196Y2838D01*
X1196Y2840D01*
X1204Y2840D01*
X1204Y2842D01*
X1212Y2842D01*
X1212Y2844D01*
X1220Y2844D01*
X1220Y2846D01*
X1228Y2846D01*
X1228Y2848D01*
X1236Y2848D01*
X1236Y2850D01*
X1244Y2850D01*
X1244Y2852D01*
X1252Y2852D01*
X1252Y2854D01*
X1262Y2854D01*
X1262Y2856D01*
X1270Y2856D01*
X1270Y2858D01*
X1280Y2858D01*
X1280Y2860D01*
X1290Y2860D01*
X1290Y2862D01*
X1300Y2862D01*
X1300Y2864D01*
X1312Y2864D01*
X1312Y2866D01*
X1322Y2866D01*
X1322Y2868D01*
X1334Y2868D01*
X1334Y2870D01*
X1348Y2870D01*
X1348Y2872D01*
X1362Y2872D01*
X1362Y2874D01*
X1376Y2874D01*
X1376Y2876D01*
X1394Y2876D01*
X1394Y2878D01*
X1414Y2878D01*
X1414Y2880D01*
X1436Y2880D01*
X1436Y2882D01*
X1466Y2882D01*
X1466Y2884D01*
X942Y2884D01*
G37*
D02*
G36*
X744Y2828D02*
X744Y2826D01*
X742Y2826D01*
X742Y2824D01*
X738Y2824D01*
X738Y2822D01*
X736Y2822D01*
X736Y2820D01*
X732Y2820D01*
X732Y2818D01*
X730Y2818D01*
X730Y2816D01*
X726Y2816D01*
X726Y2814D01*
X724Y2814D01*
X724Y2812D01*
X720Y2812D01*
X720Y2810D01*
X718Y2810D01*
X718Y2808D01*
X716Y2808D01*
X716Y2806D01*
X712Y2806D01*
X712Y2804D01*
X710Y2804D01*
X710Y2802D01*
X706Y2802D01*
X706Y2800D01*
X704Y2800D01*
X704Y2798D01*
X702Y2798D01*
X702Y2796D01*
X698Y2796D01*
X698Y2794D01*
X696Y2794D01*
X696Y2792D01*
X692Y2792D01*
X692Y2790D01*
X690Y2790D01*
X690Y2788D01*
X688Y2788D01*
X688Y2786D01*
X684Y2786D01*
X684Y2784D01*
X682Y2784D01*
X682Y2782D01*
X680Y2782D01*
X680Y2780D01*
X676Y2780D01*
X676Y2778D01*
X674Y2778D01*
X674Y2776D01*
X672Y2776D01*
X672Y2774D01*
X668Y2774D01*
X668Y2772D01*
X666Y2772D01*
X666Y2770D01*
X664Y2770D01*
X664Y2768D01*
X662Y2768D01*
X662Y2766D01*
X658Y2766D01*
X658Y2764D01*
X656Y2764D01*
X656Y2762D01*
X654Y2762D01*
X654Y2760D01*
X650Y2760D01*
X650Y2758D01*
X648Y2758D01*
X648Y2756D01*
X646Y2756D01*
X646Y2754D01*
X644Y2754D01*
X644Y2752D01*
X640Y2752D01*
X640Y2750D01*
X638Y2750D01*
X638Y2748D01*
X636Y2748D01*
X636Y2746D01*
X634Y2746D01*
X634Y2744D01*
X630Y2744D01*
X630Y2742D01*
X628Y2742D01*
X628Y2740D01*
X626Y2740D01*
X626Y2738D01*
X624Y2738D01*
X624Y2736D01*
X622Y2736D01*
X622Y2734D01*
X618Y2734D01*
X618Y2732D01*
X616Y2732D01*
X616Y2730D01*
X614Y2730D01*
X614Y2728D01*
X612Y2728D01*
X612Y2726D01*
X610Y2726D01*
X610Y2724D01*
X606Y2724D01*
X606Y2722D01*
X604Y2722D01*
X604Y2720D01*
X602Y2720D01*
X602Y2718D01*
X600Y2718D01*
X600Y2716D01*
X598Y2716D01*
X598Y2714D01*
X596Y2714D01*
X596Y2712D01*
X592Y2712D01*
X592Y2710D01*
X590Y2710D01*
X590Y2708D01*
X588Y2708D01*
X588Y2706D01*
X586Y2706D01*
X586Y2704D01*
X584Y2704D01*
X584Y2702D01*
X582Y2702D01*
X582Y2700D01*
X580Y2700D01*
X580Y2698D01*
X576Y2698D01*
X576Y2696D01*
X574Y2696D01*
X574Y2694D01*
X572Y2694D01*
X572Y2692D01*
X570Y2692D01*
X570Y2690D01*
X568Y2690D01*
X568Y2688D01*
X566Y2688D01*
X566Y2686D01*
X564Y2686D01*
X564Y2684D01*
X562Y2684D01*
X562Y2682D01*
X560Y2682D01*
X560Y2680D01*
X558Y2680D01*
X558Y2678D01*
X554Y2678D01*
X554Y2676D01*
X552Y2676D01*
X552Y2674D01*
X550Y2674D01*
X550Y2672D01*
X548Y2672D01*
X548Y2670D01*
X546Y2670D01*
X546Y2668D01*
X544Y2668D01*
X544Y2666D01*
X542Y2666D01*
X542Y2664D01*
X540Y2664D01*
X540Y2662D01*
X538Y2662D01*
X538Y2660D01*
X536Y2660D01*
X536Y2658D01*
X534Y2658D01*
X534Y2656D01*
X532Y2656D01*
X532Y2654D01*
X530Y2654D01*
X530Y2652D01*
X528Y2652D01*
X528Y2650D01*
X526Y2650D01*
X526Y2648D01*
X524Y2648D01*
X524Y2646D01*
X522Y2646D01*
X522Y2644D01*
X520Y2644D01*
X520Y2642D01*
X518Y2642D01*
X518Y2640D01*
X516Y2640D01*
X516Y2638D01*
X514Y2638D01*
X514Y2636D01*
X512Y2636D01*
X512Y2634D01*
X510Y2634D01*
X510Y2632D01*
X508Y2632D01*
X508Y2630D01*
X506Y2630D01*
X506Y2628D01*
X504Y2628D01*
X504Y2626D01*
X502Y2626D01*
X502Y2624D01*
X500Y2624D01*
X500Y2622D01*
X498Y2622D01*
X498Y2620D01*
X496Y2620D01*
X496Y2618D01*
X494Y2618D01*
X494Y2616D01*
X492Y2616D01*
X492Y2614D01*
X490Y2614D01*
X490Y2612D01*
X488Y2612D01*
X488Y2610D01*
X486Y2610D01*
X486Y2608D01*
X484Y2608D01*
X484Y2606D01*
X482Y2606D01*
X482Y2604D01*
X480Y2604D01*
X480Y2602D01*
X478Y2602D01*
X478Y2600D01*
X476Y2600D01*
X476Y2598D01*
X474Y2598D01*
X474Y2596D01*
X472Y2596D01*
X472Y2592D01*
X470Y2592D01*
X470Y2590D01*
X468Y2590D01*
X468Y2588D01*
X466Y2588D01*
X466Y2586D01*
X464Y2586D01*
X464Y2584D01*
X462Y2584D01*
X462Y2582D01*
X460Y2582D01*
X460Y2580D01*
X458Y2580D01*
X458Y2578D01*
X456Y2578D01*
X456Y2576D01*
X454Y2576D01*
X454Y2574D01*
X452Y2574D01*
X452Y2570D01*
X450Y2570D01*
X450Y2568D01*
X448Y2568D01*
X448Y2566D01*
X446Y2566D01*
X446Y2564D01*
X444Y2564D01*
X444Y2562D01*
X442Y2562D01*
X442Y2560D01*
X440Y2560D01*
X440Y2558D01*
X438Y2558D01*
X438Y2554D01*
X436Y2554D01*
X436Y2552D01*
X434Y2552D01*
X434Y2550D01*
X432Y2550D01*
X432Y2548D01*
X430Y2548D01*
X430Y2546D01*
X428Y2546D01*
X428Y2544D01*
X426Y2544D01*
X426Y2540D01*
X424Y2540D01*
X424Y2538D01*
X422Y2538D01*
X422Y2536D01*
X420Y2536D01*
X420Y2534D01*
X418Y2534D01*
X418Y2532D01*
X416Y2532D01*
X416Y2528D01*
X414Y2528D01*
X414Y2526D01*
X412Y2526D01*
X412Y2524D01*
X410Y2524D01*
X410Y2522D01*
X408Y2522D01*
X408Y2520D01*
X406Y2520D01*
X406Y2516D01*
X404Y2516D01*
X404Y2514D01*
X402Y2514D01*
X402Y2512D01*
X400Y2512D01*
X400Y2510D01*
X398Y2510D01*
X398Y2506D01*
X396Y2506D01*
X396Y2504D01*
X394Y2504D01*
X394Y2502D01*
X392Y2502D01*
X392Y2500D01*
X390Y2500D01*
X390Y2496D01*
X388Y2496D01*
X388Y2494D01*
X386Y2494D01*
X386Y2492D01*
X384Y2492D01*
X384Y2488D01*
X382Y2488D01*
X382Y2486D01*
X380Y2486D01*
X380Y2484D01*
X378Y2484D01*
X378Y2482D01*
X376Y2482D01*
X376Y2478D01*
X374Y2478D01*
X374Y2476D01*
X372Y2476D01*
X372Y2474D01*
X370Y2474D01*
X370Y2470D01*
X368Y2470D01*
X368Y2468D01*
X366Y2468D01*
X366Y2466D01*
X364Y2466D01*
X364Y2462D01*
X362Y2462D01*
X362Y2460D01*
X360Y2460D01*
X360Y2458D01*
X358Y2458D01*
X358Y2454D01*
X356Y2454D01*
X356Y2452D01*
X354Y2452D01*
X354Y2448D01*
X352Y2448D01*
X352Y2446D01*
X350Y2446D01*
X350Y2444D01*
X348Y2444D01*
X348Y2440D01*
X346Y2440D01*
X346Y2438D01*
X344Y2438D01*
X344Y2434D01*
X342Y2434D01*
X342Y2432D01*
X340Y2432D01*
X340Y2430D01*
X338Y2430D01*
X338Y2426D01*
X336Y2426D01*
X336Y2424D01*
X334Y2424D01*
X334Y2420D01*
X332Y2420D01*
X332Y2418D01*
X330Y2418D01*
X330Y2414D01*
X328Y2414D01*
X328Y2412D01*
X326Y2412D01*
X326Y2408D01*
X324Y2408D01*
X324Y2406D01*
X322Y2406D01*
X322Y2402D01*
X320Y2402D01*
X320Y2400D01*
X318Y2400D01*
X318Y2396D01*
X316Y2396D01*
X316Y2394D01*
X314Y2394D01*
X314Y2390D01*
X312Y2390D01*
X312Y2388D01*
X310Y2388D01*
X310Y2384D01*
X308Y2384D01*
X308Y2382D01*
X306Y2382D01*
X306Y2378D01*
X304Y2378D01*
X304Y2376D01*
X302Y2376D01*
X302Y2372D01*
X300Y2372D01*
X300Y2370D01*
X298Y2370D01*
X298Y2366D01*
X296Y2366D01*
X296Y2362D01*
X294Y2362D01*
X294Y2360D01*
X292Y2360D01*
X292Y2356D01*
X290Y2356D01*
X290Y2354D01*
X288Y2354D01*
X288Y2350D01*
X286Y2350D01*
X286Y2346D01*
X284Y2346D01*
X284Y2344D01*
X282Y2344D01*
X282Y2340D01*
X280Y2340D01*
X280Y2336D01*
X278Y2336D01*
X278Y2334D01*
X276Y2334D01*
X276Y2330D01*
X274Y2330D01*
X274Y2326D01*
X272Y2326D01*
X272Y2324D01*
X270Y2324D01*
X270Y2320D01*
X268Y2320D01*
X268Y2316D01*
X266Y2316D01*
X266Y2312D01*
X264Y2312D01*
X264Y2310D01*
X262Y2310D01*
X262Y2306D01*
X260Y2306D01*
X260Y2302D01*
X258Y2302D01*
X258Y2298D01*
X256Y2298D01*
X256Y2296D01*
X254Y2296D01*
X254Y2292D01*
X252Y2292D01*
X252Y2288D01*
X250Y2288D01*
X250Y2284D01*
X248Y2284D01*
X248Y2280D01*
X246Y2280D01*
X246Y2278D01*
X244Y2278D01*
X244Y2274D01*
X242Y2274D01*
X242Y2270D01*
X240Y2270D01*
X240Y2266D01*
X238Y2266D01*
X238Y2262D01*
X236Y2262D01*
X236Y2258D01*
X234Y2258D01*
X234Y2254D01*
X232Y2254D01*
X232Y2250D01*
X230Y2250D01*
X230Y2246D01*
X228Y2246D01*
X228Y2242D01*
X226Y2242D01*
X226Y2238D01*
X224Y2238D01*
X224Y2234D01*
X222Y2234D01*
X222Y2230D01*
X220Y2230D01*
X220Y2226D01*
X218Y2226D01*
X218Y2222D01*
X216Y2222D01*
X216Y2218D01*
X214Y2218D01*
X214Y2214D01*
X212Y2214D01*
X212Y2210D01*
X210Y2210D01*
X210Y2206D01*
X208Y2206D01*
X208Y2202D01*
X206Y2202D01*
X206Y2198D01*
X204Y2198D01*
X204Y2194D01*
X202Y2194D01*
X202Y2190D01*
X200Y2190D01*
X200Y2184D01*
X198Y2184D01*
X198Y2180D01*
X196Y2180D01*
X196Y2160D01*
X270Y2160D01*
X270Y2158D01*
X280Y2158D01*
X280Y2156D01*
X284Y2156D01*
X284Y2154D01*
X288Y2154D01*
X288Y2152D01*
X292Y2152D01*
X292Y2150D01*
X294Y2150D01*
X294Y2148D01*
X296Y2148D01*
X296Y2146D01*
X300Y2146D01*
X300Y2144D01*
X302Y2144D01*
X302Y2140D01*
X304Y2140D01*
X304Y2138D01*
X306Y2138D01*
X306Y2136D01*
X308Y2136D01*
X308Y2132D01*
X310Y2132D01*
X310Y2128D01*
X312Y2128D01*
X312Y2122D01*
X314Y2122D01*
X314Y2114D01*
X316Y2114D01*
X316Y2030D01*
X336Y2030D01*
X336Y2036D01*
X338Y2036D01*
X338Y2042D01*
X340Y2042D01*
X340Y2048D01*
X342Y2048D01*
X342Y2052D01*
X344Y2052D01*
X344Y2058D01*
X346Y2058D01*
X346Y2064D01*
X348Y2064D01*
X348Y2070D01*
X350Y2070D01*
X350Y2074D01*
X352Y2074D01*
X352Y2080D01*
X354Y2080D01*
X354Y2084D01*
X356Y2084D01*
X356Y2090D01*
X358Y2090D01*
X358Y2094D01*
X360Y2094D01*
X360Y2100D01*
X362Y2100D01*
X362Y2104D01*
X364Y2104D01*
X364Y2108D01*
X366Y2108D01*
X366Y2114D01*
X368Y2114D01*
X368Y2118D01*
X370Y2118D01*
X370Y2122D01*
X372Y2122D01*
X372Y2128D01*
X374Y2128D01*
X374Y2132D01*
X376Y2132D01*
X376Y2136D01*
X378Y2136D01*
X378Y2140D01*
X380Y2140D01*
X380Y2146D01*
X382Y2146D01*
X382Y2150D01*
X384Y2150D01*
X384Y2154D01*
X386Y2154D01*
X386Y2158D01*
X388Y2158D01*
X388Y2162D01*
X390Y2162D01*
X390Y2166D01*
X392Y2166D01*
X392Y2170D01*
X394Y2170D01*
X394Y2174D01*
X396Y2174D01*
X396Y2178D01*
X398Y2178D01*
X398Y2182D01*
X400Y2182D01*
X400Y2186D01*
X402Y2186D01*
X402Y2190D01*
X404Y2190D01*
X404Y2194D01*
X406Y2194D01*
X406Y2198D01*
X408Y2198D01*
X408Y2202D01*
X410Y2202D01*
X410Y2206D01*
X412Y2206D01*
X412Y2210D01*
X414Y2210D01*
X414Y2214D01*
X416Y2214D01*
X416Y2218D01*
X418Y2218D01*
X418Y2220D01*
X420Y2220D01*
X420Y2224D01*
X422Y2224D01*
X422Y2228D01*
X424Y2228D01*
X424Y2232D01*
X426Y2232D01*
X426Y2236D01*
X428Y2236D01*
X428Y2240D01*
X430Y2240D01*
X430Y2242D01*
X432Y2242D01*
X432Y2246D01*
X434Y2246D01*
X434Y2250D01*
X436Y2250D01*
X436Y2254D01*
X438Y2254D01*
X438Y2256D01*
X440Y2256D01*
X440Y2260D01*
X442Y2260D01*
X442Y2264D01*
X444Y2264D01*
X444Y2266D01*
X446Y2266D01*
X446Y2270D01*
X448Y2270D01*
X448Y2274D01*
X450Y2274D01*
X450Y2276D01*
X452Y2276D01*
X452Y2280D01*
X454Y2280D01*
X454Y2284D01*
X456Y2284D01*
X456Y2286D01*
X458Y2286D01*
X458Y2290D01*
X460Y2290D01*
X460Y2292D01*
X462Y2292D01*
X462Y2296D01*
X464Y2296D01*
X464Y2298D01*
X466Y2298D01*
X466Y2302D01*
X468Y2302D01*
X468Y2306D01*
X470Y2306D01*
X470Y2308D01*
X472Y2308D01*
X472Y2312D01*
X474Y2312D01*
X474Y2314D01*
X476Y2314D01*
X476Y2318D01*
X478Y2318D01*
X478Y2320D01*
X480Y2320D01*
X480Y2324D01*
X482Y2324D01*
X482Y2326D01*
X484Y2326D01*
X484Y2330D01*
X486Y2330D01*
X486Y2332D01*
X488Y2332D01*
X488Y2336D01*
X490Y2336D01*
X490Y2338D01*
X492Y2338D01*
X492Y2340D01*
X494Y2340D01*
X494Y2344D01*
X496Y2344D01*
X496Y2346D01*
X498Y2346D01*
X498Y2350D01*
X500Y2350D01*
X500Y2352D01*
X502Y2352D01*
X502Y2356D01*
X504Y2356D01*
X504Y2358D01*
X506Y2358D01*
X506Y2360D01*
X508Y2360D01*
X508Y2364D01*
X510Y2364D01*
X510Y2366D01*
X512Y2366D01*
X512Y2368D01*
X514Y2368D01*
X514Y2372D01*
X516Y2372D01*
X516Y2374D01*
X518Y2374D01*
X518Y2376D01*
X520Y2376D01*
X520Y2380D01*
X522Y2380D01*
X522Y2382D01*
X524Y2382D01*
X524Y2384D01*
X526Y2384D01*
X526Y2388D01*
X528Y2388D01*
X528Y2390D01*
X530Y2390D01*
X530Y2392D01*
X532Y2392D01*
X532Y2396D01*
X534Y2396D01*
X534Y2398D01*
X536Y2398D01*
X536Y2400D01*
X538Y2400D01*
X538Y2402D01*
X540Y2402D01*
X540Y2406D01*
X542Y2406D01*
X542Y2408D01*
X544Y2408D01*
X544Y2410D01*
X546Y2410D01*
X546Y2412D01*
X548Y2412D01*
X548Y2416D01*
X550Y2416D01*
X550Y2418D01*
X552Y2418D01*
X552Y2420D01*
X554Y2420D01*
X554Y2422D01*
X556Y2422D01*
X556Y2426D01*
X558Y2426D01*
X558Y2428D01*
X560Y2428D01*
X560Y2430D01*
X562Y2430D01*
X562Y2432D01*
X564Y2432D01*
X564Y2434D01*
X566Y2434D01*
X566Y2436D01*
X568Y2436D01*
X568Y2440D01*
X570Y2440D01*
X570Y2442D01*
X572Y2442D01*
X572Y2444D01*
X574Y2444D01*
X574Y2446D01*
X576Y2446D01*
X576Y2448D01*
X578Y2448D01*
X578Y2450D01*
X580Y2450D01*
X580Y2454D01*
X582Y2454D01*
X582Y2456D01*
X584Y2456D01*
X584Y2458D01*
X586Y2458D01*
X586Y2460D01*
X588Y2460D01*
X588Y2462D01*
X590Y2462D01*
X590Y2464D01*
X592Y2464D01*
X592Y2466D01*
X594Y2466D01*
X594Y2468D01*
X596Y2468D01*
X596Y2472D01*
X598Y2472D01*
X598Y2474D01*
X600Y2474D01*
X600Y2476D01*
X602Y2476D01*
X602Y2478D01*
X604Y2478D01*
X604Y2480D01*
X606Y2480D01*
X606Y2482D01*
X608Y2482D01*
X608Y2484D01*
X610Y2484D01*
X610Y2486D01*
X612Y2486D01*
X612Y2488D01*
X614Y2488D01*
X614Y2490D01*
X616Y2490D01*
X616Y2492D01*
X618Y2492D01*
X618Y2494D01*
X620Y2494D01*
X620Y2496D01*
X622Y2496D01*
X622Y2498D01*
X624Y2498D01*
X624Y2500D01*
X626Y2500D01*
X626Y2502D01*
X628Y2502D01*
X628Y2504D01*
X630Y2504D01*
X630Y2506D01*
X632Y2506D01*
X632Y2508D01*
X634Y2508D01*
X634Y2510D01*
X636Y2510D01*
X636Y2512D01*
X638Y2512D01*
X638Y2514D01*
X640Y2514D01*
X640Y2516D01*
X642Y2516D01*
X642Y2518D01*
X644Y2518D01*
X644Y2520D01*
X646Y2520D01*
X646Y2522D01*
X648Y2522D01*
X648Y2524D01*
X650Y2524D01*
X650Y2526D01*
X652Y2526D01*
X652Y2528D01*
X654Y2528D01*
X654Y2530D01*
X656Y2530D01*
X656Y2532D01*
X658Y2532D01*
X658Y2534D01*
X660Y2534D01*
X660Y2536D01*
X662Y2536D01*
X662Y2538D01*
X664Y2538D01*
X664Y2540D01*
X666Y2540D01*
X666Y2542D01*
X668Y2542D01*
X668Y2544D01*
X670Y2544D01*
X670Y2546D01*
X672Y2546D01*
X672Y2548D01*
X674Y2548D01*
X674Y2550D01*
X676Y2550D01*
X676Y2552D01*
X678Y2552D01*
X678Y2554D01*
X682Y2554D01*
X682Y2556D01*
X684Y2556D01*
X684Y2558D01*
X686Y2558D01*
X686Y2560D01*
X688Y2560D01*
X688Y2562D01*
X690Y2562D01*
X690Y2564D01*
X692Y2564D01*
X692Y2566D01*
X694Y2566D01*
X694Y2568D01*
X696Y2568D01*
X696Y2570D01*
X700Y2570D01*
X700Y2572D01*
X702Y2572D01*
X702Y2574D01*
X704Y2574D01*
X704Y2576D01*
X706Y2576D01*
X706Y2578D01*
X708Y2578D01*
X708Y2580D01*
X710Y2580D01*
X710Y2582D01*
X714Y2582D01*
X714Y2584D01*
X716Y2584D01*
X716Y2586D01*
X718Y2586D01*
X718Y2588D01*
X720Y2588D01*
X720Y2590D01*
X722Y2590D01*
X722Y2592D01*
X724Y2592D01*
X724Y2594D01*
X728Y2594D01*
X728Y2596D01*
X730Y2596D01*
X730Y2598D01*
X732Y2598D01*
X732Y2600D01*
X734Y2600D01*
X734Y2602D01*
X738Y2602D01*
X738Y2604D01*
X740Y2604D01*
X740Y2606D01*
X742Y2606D01*
X742Y2608D01*
X744Y2608D01*
X744Y2610D01*
X748Y2610D01*
X748Y2612D01*
X750Y2612D01*
X750Y2614D01*
X752Y2614D01*
X752Y2616D01*
X754Y2616D01*
X754Y2618D01*
X758Y2618D01*
X758Y2620D01*
X760Y2620D01*
X760Y2622D01*
X762Y2622D01*
X762Y2624D01*
X766Y2624D01*
X766Y2626D01*
X768Y2626D01*
X768Y2628D01*
X770Y2628D01*
X770Y2630D01*
X774Y2630D01*
X774Y2632D01*
X776Y2632D01*
X776Y2634D01*
X778Y2634D01*
X778Y2636D01*
X782Y2636D01*
X782Y2638D01*
X784Y2638D01*
X784Y2640D01*
X786Y2640D01*
X786Y2642D01*
X790Y2642D01*
X790Y2644D01*
X792Y2644D01*
X792Y2646D01*
X794Y2646D01*
X794Y2648D01*
X798Y2648D01*
X798Y2650D01*
X800Y2650D01*
X800Y2652D01*
X804Y2652D01*
X804Y2654D01*
X806Y2654D01*
X806Y2656D01*
X810Y2656D01*
X810Y2658D01*
X812Y2658D01*
X812Y2660D01*
X814Y2660D01*
X814Y2662D01*
X818Y2662D01*
X818Y2664D01*
X820Y2664D01*
X820Y2666D01*
X824Y2666D01*
X824Y2668D01*
X826Y2668D01*
X826Y2670D01*
X830Y2670D01*
X830Y2672D01*
X832Y2672D01*
X832Y2674D01*
X836Y2674D01*
X836Y2676D01*
X838Y2676D01*
X838Y2678D01*
X842Y2678D01*
X842Y2680D01*
X844Y2680D01*
X844Y2682D01*
X848Y2682D01*
X848Y2684D01*
X852Y2684D01*
X852Y2686D01*
X854Y2686D01*
X854Y2688D01*
X858Y2688D01*
X858Y2690D01*
X860Y2690D01*
X860Y2692D01*
X864Y2692D01*
X864Y2694D01*
X866Y2694D01*
X866Y2696D01*
X870Y2696D01*
X870Y2698D01*
X874Y2698D01*
X874Y2700D01*
X876Y2700D01*
X876Y2702D01*
X880Y2702D01*
X880Y2704D01*
X884Y2704D01*
X884Y2706D01*
X886Y2706D01*
X886Y2708D01*
X890Y2708D01*
X890Y2728D01*
X810Y2728D01*
X810Y2730D01*
X800Y2730D01*
X800Y2732D01*
X796Y2732D01*
X796Y2734D01*
X792Y2734D01*
X792Y2736D01*
X788Y2736D01*
X788Y2738D01*
X784Y2738D01*
X784Y2740D01*
X782Y2740D01*
X782Y2742D01*
X780Y2742D01*
X780Y2744D01*
X778Y2744D01*
X778Y2746D01*
X776Y2746D01*
X776Y2748D01*
X774Y2748D01*
X774Y2752D01*
X772Y2752D01*
X772Y2754D01*
X770Y2754D01*
X770Y2758D01*
X768Y2758D01*
X768Y2762D01*
X766Y2762D01*
X766Y2768D01*
X764Y2768D01*
X764Y2828D01*
X744Y2828D01*
G37*
D02*
G36*
X2766Y2462D02*
X2766Y2448D01*
X2764Y2448D01*
X2764Y2442D01*
X2762Y2442D01*
X2762Y2438D01*
X2760Y2438D01*
X2760Y2434D01*
X2758Y2434D01*
X2758Y2430D01*
X2756Y2430D01*
X2756Y2428D01*
X2754Y2428D01*
X2754Y2426D01*
X2752Y2426D01*
X2752Y2424D01*
X2750Y2424D01*
X2750Y2422D01*
X2748Y2422D01*
X2748Y2420D01*
X2746Y2420D01*
X2746Y2418D01*
X2744Y2418D01*
X2744Y2416D01*
X2740Y2416D01*
X2740Y2414D01*
X2736Y2414D01*
X2736Y2412D01*
X2732Y2412D01*
X2732Y2410D01*
X2724Y2410D01*
X2724Y2408D01*
X2616Y2408D01*
X2616Y2392D01*
X2618Y2392D01*
X2618Y2390D01*
X2620Y2390D01*
X2620Y2386D01*
X2622Y2386D01*
X2622Y2384D01*
X2624Y2384D01*
X2624Y2382D01*
X2626Y2382D01*
X2626Y2378D01*
X2628Y2378D01*
X2628Y2376D01*
X2630Y2376D01*
X2630Y2374D01*
X2632Y2374D01*
X2632Y2370D01*
X2634Y2370D01*
X2634Y2368D01*
X2636Y2368D01*
X2636Y2366D01*
X2638Y2366D01*
X2638Y2362D01*
X2640Y2362D01*
X2640Y2360D01*
X2642Y2360D01*
X2642Y2358D01*
X2644Y2358D01*
X2644Y2354D01*
X2646Y2354D01*
X2646Y2352D01*
X2648Y2352D01*
X2648Y2348D01*
X2650Y2348D01*
X2650Y2346D01*
X2652Y2346D01*
X2652Y2344D01*
X2654Y2344D01*
X2654Y2340D01*
X2656Y2340D01*
X2656Y2338D01*
X2658Y2338D01*
X2658Y2334D01*
X2660Y2334D01*
X2660Y2332D01*
X2662Y2332D01*
X2662Y2328D01*
X2664Y2328D01*
X2664Y2326D01*
X2666Y2326D01*
X2666Y2322D01*
X2668Y2322D01*
X2668Y2320D01*
X2670Y2320D01*
X2670Y2316D01*
X2672Y2316D01*
X2672Y2314D01*
X2674Y2314D01*
X2674Y2310D01*
X2676Y2310D01*
X2676Y2308D01*
X2678Y2308D01*
X2678Y2304D01*
X2680Y2304D01*
X2680Y2302D01*
X2682Y2302D01*
X2682Y2298D01*
X2684Y2298D01*
X2684Y2296D01*
X2686Y2296D01*
X2686Y2292D01*
X2688Y2292D01*
X2688Y2288D01*
X2690Y2288D01*
X2690Y2286D01*
X2692Y2286D01*
X2692Y2282D01*
X2694Y2282D01*
X2694Y2280D01*
X2696Y2280D01*
X2696Y2276D01*
X2698Y2276D01*
X2698Y2272D01*
X2700Y2272D01*
X2700Y2270D01*
X2702Y2270D01*
X2702Y2266D01*
X2704Y2266D01*
X2704Y2262D01*
X2706Y2262D01*
X2706Y2260D01*
X2708Y2260D01*
X2708Y2256D01*
X2710Y2256D01*
X2710Y2252D01*
X2712Y2252D01*
X2712Y2248D01*
X2714Y2248D01*
X2714Y2246D01*
X2716Y2246D01*
X2716Y2242D01*
X2718Y2242D01*
X2718Y2238D01*
X2720Y2238D01*
X2720Y2234D01*
X2722Y2234D01*
X2722Y2232D01*
X2724Y2232D01*
X2724Y2228D01*
X2726Y2228D01*
X2726Y2224D01*
X2728Y2224D01*
X2728Y2220D01*
X2730Y2220D01*
X2730Y2216D01*
X2732Y2216D01*
X2732Y2212D01*
X2734Y2212D01*
X2734Y2210D01*
X2736Y2210D01*
X2736Y2206D01*
X2738Y2206D01*
X2738Y2202D01*
X2740Y2202D01*
X2740Y2198D01*
X2742Y2198D01*
X2742Y2194D01*
X2744Y2194D01*
X2744Y2190D01*
X2746Y2190D01*
X2746Y2186D01*
X2748Y2186D01*
X2748Y2182D01*
X2750Y2182D01*
X2750Y2178D01*
X2752Y2178D01*
X2752Y2174D01*
X2754Y2174D01*
X2754Y2170D01*
X2756Y2170D01*
X2756Y2166D01*
X2758Y2166D01*
X2758Y2162D01*
X2760Y2162D01*
X2760Y2158D01*
X2762Y2158D01*
X2762Y2152D01*
X2764Y2152D01*
X2764Y2148D01*
X2766Y2148D01*
X2766Y2144D01*
X2768Y2144D01*
X2768Y2140D01*
X2770Y2140D01*
X2770Y2136D01*
X2772Y2136D01*
X2772Y2130D01*
X2774Y2130D01*
X2774Y2126D01*
X2776Y2126D01*
X2776Y2122D01*
X2778Y2122D01*
X2778Y2118D01*
X2780Y2118D01*
X2780Y2112D01*
X2782Y2112D01*
X2782Y2108D01*
X2784Y2108D01*
X2784Y2102D01*
X2786Y2102D01*
X2786Y2098D01*
X2788Y2098D01*
X2788Y2094D01*
X2790Y2094D01*
X2790Y2088D01*
X2792Y2088D01*
X2792Y2084D01*
X2794Y2084D01*
X2794Y2078D01*
X2796Y2078D01*
X2796Y2074D01*
X2798Y2074D01*
X2798Y2068D01*
X2800Y2068D01*
X2800Y2062D01*
X2802Y2062D01*
X2802Y2058D01*
X2804Y2058D01*
X2804Y2052D01*
X2806Y2052D01*
X2806Y2046D01*
X2808Y2046D01*
X2808Y2040D01*
X2810Y2040D01*
X2810Y2036D01*
X2812Y2036D01*
X2812Y2030D01*
X2814Y2030D01*
X2814Y2024D01*
X2816Y2024D01*
X2816Y2018D01*
X2818Y2018D01*
X2818Y2012D01*
X2820Y2012D01*
X2820Y2006D01*
X2822Y2006D01*
X2822Y2000D01*
X2824Y2000D01*
X2824Y1992D01*
X2826Y1992D01*
X2826Y1986D01*
X2828Y1986D01*
X2828Y1980D01*
X2830Y1980D01*
X2830Y1972D01*
X2832Y1972D01*
X2832Y1966D01*
X2834Y1966D01*
X2834Y1960D01*
X2996Y1960D01*
X2996Y1958D01*
X3002Y1958D01*
X3002Y1956D01*
X3006Y1956D01*
X3006Y1954D01*
X3010Y1954D01*
X3010Y1952D01*
X3012Y1952D01*
X3012Y1950D01*
X3014Y1950D01*
X3014Y1946D01*
X3016Y1946D01*
X3016Y1944D01*
X3036Y1944D01*
X3036Y1946D01*
X3034Y1946D01*
X3034Y1954D01*
X3032Y1954D01*
X3032Y1962D01*
X3030Y1962D01*
X3030Y1968D01*
X3028Y1968D01*
X3028Y1974D01*
X3026Y1974D01*
X3026Y1982D01*
X3024Y1982D01*
X3024Y1988D01*
X3022Y1988D01*
X3022Y1994D01*
X3020Y1994D01*
X3020Y2002D01*
X3018Y2002D01*
X3018Y2008D01*
X3016Y2008D01*
X3016Y2014D01*
X3014Y2014D01*
X3014Y2020D01*
X3012Y2020D01*
X3012Y2026D01*
X3010Y2026D01*
X3010Y2032D01*
X3008Y2032D01*
X3008Y2038D01*
X3006Y2038D01*
X3006Y2044D01*
X3004Y2044D01*
X3004Y2050D01*
X3002Y2050D01*
X3002Y2056D01*
X3000Y2056D01*
X3000Y2060D01*
X2998Y2060D01*
X2998Y2066D01*
X2996Y2066D01*
X2996Y2072D01*
X2994Y2072D01*
X2994Y2078D01*
X2992Y2078D01*
X2992Y2082D01*
X2990Y2082D01*
X2990Y2088D01*
X2988Y2088D01*
X2988Y2094D01*
X2986Y2094D01*
X2986Y2098D01*
X2984Y2098D01*
X2984Y2104D01*
X2982Y2104D01*
X2982Y2108D01*
X2980Y2108D01*
X2980Y2114D01*
X2978Y2114D01*
X2978Y2118D01*
X2976Y2118D01*
X2976Y2124D01*
X2974Y2124D01*
X2974Y2128D01*
X2972Y2128D01*
X2972Y2134D01*
X2970Y2134D01*
X2970Y2138D01*
X2968Y2138D01*
X2968Y2144D01*
X2966Y2144D01*
X2966Y2148D01*
X2964Y2148D01*
X2964Y2152D01*
X2962Y2152D01*
X2962Y2158D01*
X2960Y2158D01*
X2960Y2162D01*
X2958Y2162D01*
X2958Y2166D01*
X2956Y2166D01*
X2956Y2170D01*
X2954Y2170D01*
X2954Y2176D01*
X2952Y2176D01*
X2952Y2180D01*
X2950Y2180D01*
X2950Y2184D01*
X2948Y2184D01*
X2948Y2188D01*
X2946Y2188D01*
X2946Y2192D01*
X2944Y2192D01*
X2944Y2196D01*
X2942Y2196D01*
X2942Y2202D01*
X2940Y2202D01*
X2940Y2206D01*
X2938Y2206D01*
X2938Y2210D01*
X2936Y2210D01*
X2936Y2214D01*
X2934Y2214D01*
X2934Y2218D01*
X2932Y2218D01*
X2932Y2222D01*
X2930Y2222D01*
X2930Y2226D01*
X2928Y2226D01*
X2928Y2230D01*
X2926Y2230D01*
X2926Y2234D01*
X2924Y2234D01*
X2924Y2238D01*
X2922Y2238D01*
X2922Y2242D01*
X2920Y2242D01*
X2920Y2246D01*
X2918Y2246D01*
X2918Y2250D01*
X2916Y2250D01*
X2916Y2254D01*
X2914Y2254D01*
X2914Y2258D01*
X2912Y2258D01*
X2912Y2262D01*
X2910Y2262D01*
X2910Y2266D01*
X2908Y2266D01*
X2908Y2268D01*
X2906Y2268D01*
X2906Y2272D01*
X2904Y2272D01*
X2904Y2276D01*
X2902Y2276D01*
X2902Y2280D01*
X2900Y2280D01*
X2900Y2284D01*
X2898Y2284D01*
X2898Y2288D01*
X2896Y2288D01*
X2896Y2292D01*
X2894Y2292D01*
X2894Y2294D01*
X2892Y2294D01*
X2892Y2298D01*
X2890Y2298D01*
X2890Y2302D01*
X2888Y2302D01*
X2888Y2306D01*
X2886Y2306D01*
X2886Y2308D01*
X2884Y2308D01*
X2884Y2312D01*
X2882Y2312D01*
X2882Y2316D01*
X2880Y2316D01*
X2880Y2320D01*
X2878Y2320D01*
X2878Y2322D01*
X2876Y2322D01*
X2876Y2326D01*
X2874Y2326D01*
X2874Y2330D01*
X2872Y2330D01*
X2872Y2332D01*
X2870Y2332D01*
X2870Y2336D01*
X2868Y2336D01*
X2868Y2340D01*
X2866Y2340D01*
X2866Y2342D01*
X2864Y2342D01*
X2864Y2346D01*
X2862Y2346D01*
X2862Y2350D01*
X2860Y2350D01*
X2860Y2352D01*
X2858Y2352D01*
X2858Y2356D01*
X2856Y2356D01*
X2856Y2360D01*
X2854Y2360D01*
X2854Y2362D01*
X2852Y2362D01*
X2852Y2366D01*
X2850Y2366D01*
X2850Y2368D01*
X2848Y2368D01*
X2848Y2372D01*
X2846Y2372D01*
X2846Y2374D01*
X2844Y2374D01*
X2844Y2378D01*
X2842Y2378D01*
X2842Y2382D01*
X2840Y2382D01*
X2840Y2384D01*
X2838Y2384D01*
X2838Y2388D01*
X2836Y2388D01*
X2836Y2390D01*
X2834Y2390D01*
X2834Y2394D01*
X2832Y2394D01*
X2832Y2396D01*
X2830Y2396D01*
X2830Y2400D01*
X2828Y2400D01*
X2828Y2402D01*
X2826Y2402D01*
X2826Y2406D01*
X2824Y2406D01*
X2824Y2408D01*
X2822Y2408D01*
X2822Y2412D01*
X2820Y2412D01*
X2820Y2414D01*
X2818Y2414D01*
X2818Y2418D01*
X2816Y2418D01*
X2816Y2420D01*
X2814Y2420D01*
X2814Y2422D01*
X2812Y2422D01*
X2812Y2426D01*
X2810Y2426D01*
X2810Y2428D01*
X2808Y2428D01*
X2808Y2432D01*
X2806Y2432D01*
X2806Y2434D01*
X2804Y2434D01*
X2804Y2438D01*
X2802Y2438D01*
X2802Y2440D01*
X2800Y2440D01*
X2800Y2442D01*
X2798Y2442D01*
X2798Y2446D01*
X2796Y2446D01*
X2796Y2448D01*
X2794Y2448D01*
X2794Y2452D01*
X2792Y2452D01*
X2792Y2454D01*
X2790Y2454D01*
X2790Y2456D01*
X2788Y2456D01*
X2788Y2460D01*
X2786Y2460D01*
X2786Y2462D01*
X2766Y2462D01*
G37*
D02*
G36*
X126Y1994D02*
X126Y1990D01*
X124Y1990D01*
X124Y1984D01*
X122Y1984D01*
X122Y1976D01*
X120Y1976D01*
X120Y1970D01*
X118Y1970D01*
X118Y1962D01*
X116Y1962D01*
X116Y1956D01*
X114Y1956D01*
X114Y1948D01*
X112Y1948D01*
X112Y1944D01*
X132Y1944D01*
X132Y1948D01*
X134Y1948D01*
X134Y1950D01*
X136Y1950D01*
X136Y1952D01*
X138Y1952D01*
X138Y1954D01*
X142Y1954D01*
X142Y1956D01*
X146Y1956D01*
X146Y1958D01*
X152Y1958D01*
X152Y1960D01*
X166Y1960D01*
X166Y1980D01*
X162Y1980D01*
X162Y1982D01*
X158Y1982D01*
X158Y1984D01*
X154Y1984D01*
X154Y1986D01*
X152Y1986D01*
X152Y1988D01*
X150Y1988D01*
X150Y1990D01*
X148Y1990D01*
X148Y1992D01*
X146Y1992D01*
X146Y1994D01*
X126Y1994D01*
G37*
D02*
G36*
X108Y1934D02*
X108Y1926D01*
X106Y1926D01*
X106Y1918D01*
X104Y1918D01*
X104Y1910D01*
X102Y1910D01*
X102Y1902D01*
X100Y1902D01*
X100Y1894D01*
X98Y1894D01*
X98Y1884D01*
X96Y1884D01*
X96Y1876D01*
X94Y1876D01*
X94Y1866D01*
X92Y1866D01*
X92Y1858D01*
X90Y1858D01*
X90Y1848D01*
X88Y1848D01*
X88Y1838D01*
X86Y1838D01*
X86Y1828D01*
X84Y1828D01*
X84Y1816D01*
X82Y1816D01*
X82Y1806D01*
X80Y1806D01*
X80Y1794D01*
X78Y1794D01*
X78Y1782D01*
X76Y1782D01*
X76Y1768D01*
X74Y1768D01*
X74Y1756D01*
X72Y1756D01*
X72Y1740D01*
X70Y1740D01*
X70Y1724D01*
X68Y1724D01*
X68Y1706D01*
X66Y1706D01*
X66Y1688D01*
X64Y1688D01*
X64Y1666D01*
X62Y1666D01*
X62Y1638D01*
X60Y1638D01*
X60Y1600D01*
X58Y1600D01*
X58Y1552D01*
X60Y1552D01*
X60Y1514D01*
X62Y1514D01*
X62Y1488D01*
X64Y1488D01*
X64Y1466D01*
X66Y1466D01*
X66Y1446D01*
X68Y1446D01*
X68Y1428D01*
X70Y1428D01*
X70Y1412D01*
X72Y1412D01*
X72Y1398D01*
X74Y1398D01*
X74Y1384D01*
X76Y1384D01*
X76Y1370D01*
X78Y1370D01*
X78Y1358D01*
X80Y1358D01*
X80Y1346D01*
X82Y1346D01*
X82Y1336D01*
X84Y1336D01*
X84Y1326D01*
X86Y1326D01*
X86Y1314D01*
X88Y1314D01*
X88Y1304D01*
X90Y1304D01*
X90Y1296D01*
X92Y1296D01*
X92Y1286D01*
X94Y1286D01*
X94Y1276D01*
X96Y1276D01*
X96Y1268D01*
X98Y1268D01*
X98Y1260D01*
X100Y1260D01*
X100Y1250D01*
X102Y1250D01*
X102Y1242D01*
X104Y1242D01*
X104Y1234D01*
X106Y1234D01*
X106Y1226D01*
X108Y1226D01*
X108Y1220D01*
X128Y1220D01*
X128Y1934D01*
X108Y1934D01*
G37*
D02*
G36*
X3020Y1932D02*
X3020Y1668D01*
X3060Y1668D01*
X3060Y1666D01*
X3084Y1666D01*
X3084Y1682D01*
X3082Y1682D01*
X3082Y1704D01*
X3080Y1704D01*
X3080Y1720D01*
X3078Y1720D01*
X3078Y1736D01*
X3076Y1736D01*
X3076Y1752D01*
X3074Y1752D01*
X3074Y1766D01*
X3072Y1766D01*
X3072Y1778D01*
X3070Y1778D01*
X3070Y1792D01*
X3068Y1792D01*
X3068Y1804D01*
X3066Y1804D01*
X3066Y1814D01*
X3064Y1814D01*
X3064Y1826D01*
X3062Y1826D01*
X3062Y1836D01*
X3060Y1836D01*
X3060Y1846D01*
X3058Y1846D01*
X3058Y1856D01*
X3056Y1856D01*
X3056Y1864D01*
X3054Y1864D01*
X3054Y1874D01*
X3052Y1874D01*
X3052Y1882D01*
X3050Y1882D01*
X3050Y1892D01*
X3048Y1892D01*
X3048Y1900D01*
X3046Y1900D01*
X3046Y1908D01*
X3044Y1908D01*
X3044Y1916D01*
X3042Y1916D01*
X3042Y1924D01*
X3040Y1924D01*
X3040Y1932D01*
X3020Y1932D01*
G37*
D02*
G36*
X3060Y1486D02*
X3060Y1484D01*
X3020Y1484D01*
X3020Y1220D01*
X3040Y1220D01*
X3040Y1228D01*
X3042Y1228D01*
X3042Y1236D01*
X3044Y1236D01*
X3044Y1244D01*
X3046Y1244D01*
X3046Y1252D01*
X3048Y1252D01*
X3048Y1260D01*
X3050Y1260D01*
X3050Y1270D01*
X3052Y1270D01*
X3052Y1278D01*
X3054Y1278D01*
X3054Y1288D01*
X3056Y1288D01*
X3056Y1298D01*
X3058Y1298D01*
X3058Y1306D01*
X3060Y1306D01*
X3060Y1316D01*
X3062Y1316D01*
X3062Y1328D01*
X3064Y1328D01*
X3064Y1338D01*
X3066Y1338D01*
X3066Y1350D01*
X3068Y1350D01*
X3068Y1362D01*
X3070Y1362D01*
X3070Y1374D01*
X3072Y1374D01*
X3072Y1386D01*
X3074Y1386D01*
X3074Y1400D01*
X3076Y1400D01*
X3076Y1416D01*
X3078Y1416D01*
X3078Y1432D01*
X3080Y1432D01*
X3080Y1450D01*
X3082Y1450D01*
X3082Y1470D01*
X3084Y1470D01*
X3084Y1486D01*
X3060Y1486D01*
G37*
D02*
G36*
X3016Y1210D02*
X3016Y1206D01*
X3014Y1206D01*
X3014Y1204D01*
X3012Y1204D01*
X3012Y1202D01*
X3010Y1202D01*
X3010Y1200D01*
X3008Y1200D01*
X3008Y1198D01*
X3006Y1198D01*
X3006Y1196D01*
X3002Y1196D01*
X3002Y1194D01*
X2992Y1194D01*
X2992Y1192D01*
X2834Y1192D01*
X2834Y1186D01*
X2832Y1186D01*
X2832Y1180D01*
X2830Y1180D01*
X2830Y1172D01*
X2828Y1172D01*
X2828Y1166D01*
X2826Y1166D01*
X2826Y1160D01*
X2824Y1160D01*
X2824Y1154D01*
X2822Y1154D01*
X2822Y1146D01*
X2820Y1146D01*
X2820Y1140D01*
X2818Y1140D01*
X2818Y1134D01*
X2816Y1134D01*
X2816Y1128D01*
X2814Y1128D01*
X2814Y1124D01*
X2812Y1124D01*
X2812Y1118D01*
X2810Y1118D01*
X2810Y1112D01*
X2808Y1112D01*
X2808Y1106D01*
X2806Y1106D01*
X2806Y1100D01*
X2804Y1100D01*
X2804Y1096D01*
X2802Y1096D01*
X2802Y1090D01*
X2800Y1090D01*
X2800Y1084D01*
X2798Y1084D01*
X2798Y1080D01*
X2796Y1080D01*
X2796Y1074D01*
X2794Y1074D01*
X2794Y1070D01*
X2792Y1070D01*
X2792Y1064D01*
X2790Y1064D01*
X2790Y1060D01*
X2788Y1060D01*
X2788Y1054D01*
X2786Y1054D01*
X2786Y1050D01*
X2784Y1050D01*
X2784Y1044D01*
X2782Y1044D01*
X2782Y1040D01*
X2780Y1040D01*
X2780Y1036D01*
X2778Y1036D01*
X2778Y1030D01*
X2776Y1030D01*
X2776Y1026D01*
X2774Y1026D01*
X2774Y1022D01*
X2772Y1022D01*
X2772Y1018D01*
X2770Y1018D01*
X2770Y1012D01*
X2768Y1012D01*
X2768Y1008D01*
X2766Y1008D01*
X2766Y1004D01*
X2764Y1004D01*
X2764Y1000D01*
X2762Y1000D01*
X2762Y996D01*
X2760Y996D01*
X2760Y992D01*
X2758Y992D01*
X2758Y986D01*
X2756Y986D01*
X2756Y982D01*
X2754Y982D01*
X2754Y978D01*
X2752Y978D01*
X2752Y974D01*
X2750Y974D01*
X2750Y970D01*
X2748Y970D01*
X2748Y966D01*
X2746Y966D01*
X2746Y962D01*
X2744Y962D01*
X2744Y958D01*
X2742Y958D01*
X2742Y954D01*
X2740Y954D01*
X2740Y952D01*
X2738Y952D01*
X2738Y948D01*
X2736Y948D01*
X2736Y944D01*
X2734Y944D01*
X2734Y940D01*
X2732Y940D01*
X2732Y936D01*
X2730Y936D01*
X2730Y932D01*
X2728Y932D01*
X2728Y928D01*
X2726Y928D01*
X2726Y924D01*
X2724Y924D01*
X2724Y922D01*
X2722Y922D01*
X2722Y918D01*
X2720Y918D01*
X2720Y914D01*
X2718Y914D01*
X2718Y910D01*
X2716Y910D01*
X2716Y906D01*
X2714Y906D01*
X2714Y904D01*
X2712Y904D01*
X2712Y900D01*
X2710Y900D01*
X2710Y896D01*
X2708Y896D01*
X2708Y894D01*
X2706Y894D01*
X2706Y890D01*
X2704Y890D01*
X2704Y886D01*
X2702Y886D01*
X2702Y884D01*
X2700Y884D01*
X2700Y880D01*
X2698Y880D01*
X2698Y876D01*
X2696Y876D01*
X2696Y874D01*
X2694Y874D01*
X2694Y870D01*
X2692Y870D01*
X2692Y866D01*
X2690Y866D01*
X2690Y864D01*
X2688Y864D01*
X2688Y860D01*
X2686Y860D01*
X2686Y858D01*
X2684Y858D01*
X2684Y854D01*
X2682Y854D01*
X2682Y850D01*
X2680Y850D01*
X2680Y848D01*
X2678Y848D01*
X2678Y844D01*
X2676Y844D01*
X2676Y842D01*
X2674Y842D01*
X2674Y838D01*
X2672Y838D01*
X2672Y836D01*
X2670Y836D01*
X2670Y832D01*
X2668Y832D01*
X2668Y830D01*
X2666Y830D01*
X2666Y826D01*
X2664Y826D01*
X2664Y824D01*
X2662Y824D01*
X2662Y820D01*
X2660Y820D01*
X2660Y818D01*
X2658Y818D01*
X2658Y814D01*
X2656Y814D01*
X2656Y812D01*
X2654Y812D01*
X2654Y810D01*
X2652Y810D01*
X2652Y806D01*
X2650Y806D01*
X2650Y804D01*
X2648Y804D01*
X2648Y800D01*
X2646Y800D01*
X2646Y798D01*
X2644Y798D01*
X2644Y796D01*
X2642Y796D01*
X2642Y792D01*
X2640Y792D01*
X2640Y790D01*
X2638Y790D01*
X2638Y786D01*
X2636Y786D01*
X2636Y784D01*
X2634Y784D01*
X2634Y782D01*
X2632Y782D01*
X2632Y778D01*
X2630Y778D01*
X2630Y776D01*
X2628Y776D01*
X2628Y774D01*
X2626Y774D01*
X2626Y770D01*
X2624Y770D01*
X2624Y768D01*
X2622Y768D01*
X2622Y766D01*
X2620Y766D01*
X2620Y762D01*
X2618Y762D01*
X2618Y744D01*
X2726Y744D01*
X2726Y742D01*
X2732Y742D01*
X2732Y740D01*
X2738Y740D01*
X2738Y738D01*
X2740Y738D01*
X2740Y736D01*
X2744Y736D01*
X2744Y734D01*
X2746Y734D01*
X2746Y732D01*
X2748Y732D01*
X2748Y730D01*
X2752Y730D01*
X2752Y728D01*
X2754Y728D01*
X2754Y724D01*
X2756Y724D01*
X2756Y722D01*
X2758Y722D01*
X2758Y718D01*
X2760Y718D01*
X2760Y716D01*
X2762Y716D01*
X2762Y710D01*
X2764Y710D01*
X2764Y704D01*
X2766Y704D01*
X2766Y690D01*
X2786Y690D01*
X2786Y694D01*
X2788Y694D01*
X2788Y696D01*
X2790Y696D01*
X2790Y698D01*
X2792Y698D01*
X2792Y702D01*
X2794Y702D01*
X2794Y704D01*
X2796Y704D01*
X2796Y706D01*
X2798Y706D01*
X2798Y710D01*
X2800Y710D01*
X2800Y712D01*
X2802Y712D01*
X2802Y716D01*
X2804Y716D01*
X2804Y718D01*
X2806Y718D01*
X2806Y720D01*
X2808Y720D01*
X2808Y724D01*
X2810Y724D01*
X2810Y726D01*
X2812Y726D01*
X2812Y730D01*
X2814Y730D01*
X2814Y732D01*
X2816Y732D01*
X2816Y736D01*
X2818Y736D01*
X2818Y738D01*
X2820Y738D01*
X2820Y742D01*
X2822Y742D01*
X2822Y744D01*
X2824Y744D01*
X2824Y748D01*
X2826Y748D01*
X2826Y750D01*
X2828Y750D01*
X2828Y754D01*
X2830Y754D01*
X2830Y756D01*
X2832Y756D01*
X2832Y760D01*
X2834Y760D01*
X2834Y762D01*
X2836Y762D01*
X2836Y766D01*
X2838Y766D01*
X2838Y768D01*
X2840Y768D01*
X2840Y772D01*
X2842Y772D01*
X2842Y774D01*
X2844Y774D01*
X2844Y778D01*
X2846Y778D01*
X2846Y780D01*
X2848Y780D01*
X2848Y784D01*
X2850Y784D01*
X2850Y788D01*
X2852Y788D01*
X2852Y790D01*
X2854Y790D01*
X2854Y794D01*
X2856Y794D01*
X2856Y796D01*
X2858Y796D01*
X2858Y800D01*
X2860Y800D01*
X2860Y804D01*
X2862Y804D01*
X2862Y806D01*
X2864Y806D01*
X2864Y810D01*
X2866Y810D01*
X2866Y812D01*
X2868Y812D01*
X2868Y816D01*
X2870Y816D01*
X2870Y820D01*
X2872Y820D01*
X2872Y824D01*
X2874Y824D01*
X2874Y826D01*
X2876Y826D01*
X2876Y830D01*
X2878Y830D01*
X2878Y834D01*
X2880Y834D01*
X2880Y836D01*
X2882Y836D01*
X2882Y840D01*
X2884Y840D01*
X2884Y844D01*
X2886Y844D01*
X2886Y848D01*
X2888Y848D01*
X2888Y850D01*
X2890Y850D01*
X2890Y854D01*
X2892Y854D01*
X2892Y858D01*
X2894Y858D01*
X2894Y862D01*
X2896Y862D01*
X2896Y866D01*
X2898Y866D01*
X2898Y868D01*
X2900Y868D01*
X2900Y872D01*
X2902Y872D01*
X2902Y876D01*
X2904Y876D01*
X2904Y880D01*
X2906Y880D01*
X2906Y884D01*
X2908Y884D01*
X2908Y888D01*
X2910Y888D01*
X2910Y892D01*
X2912Y892D01*
X2912Y894D01*
X2914Y894D01*
X2914Y898D01*
X2916Y898D01*
X2916Y902D01*
X2918Y902D01*
X2918Y906D01*
X2920Y906D01*
X2920Y910D01*
X2922Y910D01*
X2922Y914D01*
X2924Y914D01*
X2924Y918D01*
X2926Y918D01*
X2926Y922D01*
X2928Y922D01*
X2928Y926D01*
X2930Y926D01*
X2930Y930D01*
X2932Y930D01*
X2932Y934D01*
X2934Y934D01*
X2934Y938D01*
X2936Y938D01*
X2936Y942D01*
X2938Y942D01*
X2938Y948D01*
X2940Y948D01*
X2940Y952D01*
X2942Y952D01*
X2942Y956D01*
X2944Y956D01*
X2944Y960D01*
X2946Y960D01*
X2946Y964D01*
X2948Y964D01*
X2948Y968D01*
X2950Y968D01*
X2950Y972D01*
X2952Y972D01*
X2952Y978D01*
X2954Y978D01*
X2954Y982D01*
X2956Y982D01*
X2956Y986D01*
X2958Y986D01*
X2958Y990D01*
X2960Y990D01*
X2960Y996D01*
X2962Y996D01*
X2962Y1000D01*
X2964Y1000D01*
X2964Y1004D01*
X2966Y1004D01*
X2966Y1010D01*
X2968Y1010D01*
X2968Y1014D01*
X2970Y1014D01*
X2970Y1018D01*
X2972Y1018D01*
X2972Y1024D01*
X2974Y1024D01*
X2974Y1028D01*
X2976Y1028D01*
X2976Y1034D01*
X2978Y1034D01*
X2978Y1038D01*
X2980Y1038D01*
X2980Y1044D01*
X2982Y1044D01*
X2982Y1048D01*
X2984Y1048D01*
X2984Y1054D01*
X2986Y1054D01*
X2986Y1058D01*
X2988Y1058D01*
X2988Y1064D01*
X2990Y1064D01*
X2990Y1070D01*
X2992Y1070D01*
X2992Y1074D01*
X2994Y1074D01*
X2994Y1080D01*
X2996Y1080D01*
X2996Y1086D01*
X2998Y1086D01*
X2998Y1092D01*
X3000Y1092D01*
X3000Y1098D01*
X3002Y1098D01*
X3002Y1102D01*
X3004Y1102D01*
X3004Y1108D01*
X3006Y1108D01*
X3006Y1114D01*
X3008Y1114D01*
X3008Y1120D01*
X3010Y1120D01*
X3010Y1126D01*
X3012Y1126D01*
X3012Y1132D01*
X3014Y1132D01*
X3014Y1138D01*
X3016Y1138D01*
X3016Y1144D01*
X3018Y1144D01*
X3018Y1152D01*
X3020Y1152D01*
X3020Y1158D01*
X3022Y1158D01*
X3022Y1164D01*
X3024Y1164D01*
X3024Y1170D01*
X3026Y1170D01*
X3026Y1178D01*
X3028Y1178D01*
X3028Y1184D01*
X3030Y1184D01*
X3030Y1192D01*
X3032Y1192D01*
X3032Y1198D01*
X3034Y1198D01*
X3034Y1206D01*
X3036Y1206D01*
X3036Y1210D01*
X3016Y1210D01*
G37*
D02*
G36*
X112Y1208D02*
X112Y1204D01*
X114Y1204D01*
X114Y1198D01*
X116Y1198D01*
X116Y1190D01*
X118Y1190D01*
X118Y1182D01*
X120Y1182D01*
X120Y1176D01*
X122Y1176D01*
X122Y1170D01*
X124Y1170D01*
X124Y1162D01*
X126Y1162D01*
X126Y1160D01*
X146Y1160D01*
X146Y1162D01*
X148Y1162D01*
X148Y1164D01*
X152Y1164D01*
X152Y1166D01*
X154Y1166D01*
X154Y1168D01*
X156Y1168D01*
X156Y1170D01*
X160Y1170D01*
X160Y1172D01*
X164Y1172D01*
X164Y1192D01*
X156Y1192D01*
X156Y1194D01*
X146Y1194D01*
X146Y1196D01*
X142Y1196D01*
X142Y1198D01*
X138Y1198D01*
X138Y1200D01*
X136Y1200D01*
X136Y1202D01*
X134Y1202D01*
X134Y1206D01*
X132Y1206D01*
X132Y1208D01*
X112Y1208D01*
G37*
D02*
G36*
X316Y1122D02*
X316Y1040D01*
X314Y1040D01*
X314Y1030D01*
X312Y1030D01*
X312Y1024D01*
X310Y1024D01*
X310Y1020D01*
X308Y1020D01*
X308Y1016D01*
X306Y1016D01*
X306Y1014D01*
X304Y1014D01*
X304Y1012D01*
X302Y1012D01*
X302Y1010D01*
X300Y1010D01*
X300Y1008D01*
X298Y1008D01*
X298Y1006D01*
X296Y1006D01*
X296Y1004D01*
X294Y1004D01*
X294Y1002D01*
X290Y1002D01*
X290Y1000D01*
X288Y1000D01*
X288Y998D01*
X284Y998D01*
X284Y996D01*
X278Y996D01*
X278Y994D01*
X268Y994D01*
X268Y992D01*
X196Y992D01*
X196Y972D01*
X198Y972D01*
X198Y968D01*
X200Y968D01*
X200Y964D01*
X202Y964D01*
X202Y958D01*
X204Y958D01*
X204Y954D01*
X206Y954D01*
X206Y950D01*
X208Y950D01*
X208Y946D01*
X210Y946D01*
X210Y942D01*
X212Y942D01*
X212Y938D01*
X214Y938D01*
X214Y934D01*
X216Y934D01*
X216Y930D01*
X218Y930D01*
X218Y926D01*
X220Y926D01*
X220Y922D01*
X222Y922D01*
X222Y918D01*
X224Y918D01*
X224Y914D01*
X226Y914D01*
X226Y910D01*
X228Y910D01*
X228Y906D01*
X230Y906D01*
X230Y902D01*
X232Y902D01*
X232Y898D01*
X234Y898D01*
X234Y894D01*
X236Y894D01*
X236Y890D01*
X238Y890D01*
X238Y886D01*
X240Y886D01*
X240Y882D01*
X242Y882D01*
X242Y880D01*
X244Y880D01*
X244Y876D01*
X246Y876D01*
X246Y872D01*
X248Y872D01*
X248Y868D01*
X250Y868D01*
X250Y864D01*
X252Y864D01*
X252Y860D01*
X254Y860D01*
X254Y858D01*
X256Y858D01*
X256Y854D01*
X258Y854D01*
X258Y850D01*
X260Y850D01*
X260Y846D01*
X262Y846D01*
X262Y842D01*
X264Y842D01*
X264Y840D01*
X266Y840D01*
X266Y836D01*
X268Y836D01*
X268Y832D01*
X270Y832D01*
X270Y830D01*
X272Y830D01*
X272Y826D01*
X274Y826D01*
X274Y822D01*
X276Y822D01*
X276Y818D01*
X278Y818D01*
X278Y816D01*
X280Y816D01*
X280Y812D01*
X282Y812D01*
X282Y810D01*
X284Y810D01*
X284Y806D01*
X286Y806D01*
X286Y802D01*
X288Y802D01*
X288Y800D01*
X290Y800D01*
X290Y796D01*
X292Y796D01*
X292Y792D01*
X294Y792D01*
X294Y790D01*
X296Y790D01*
X296Y786D01*
X298Y786D01*
X298Y784D01*
X300Y784D01*
X300Y780D01*
X302Y780D01*
X302Y776D01*
X304Y776D01*
X304Y774D01*
X306Y774D01*
X306Y770D01*
X308Y770D01*
X308Y768D01*
X310Y768D01*
X310Y764D01*
X312Y764D01*
X312Y762D01*
X314Y762D01*
X314Y758D01*
X316Y758D01*
X316Y756D01*
X318Y756D01*
X318Y752D01*
X320Y752D01*
X320Y750D01*
X322Y750D01*
X322Y746D01*
X324Y746D01*
X324Y744D01*
X326Y744D01*
X326Y740D01*
X328Y740D01*
X328Y738D01*
X330Y738D01*
X330Y734D01*
X332Y734D01*
X332Y732D01*
X334Y732D01*
X334Y728D01*
X336Y728D01*
X336Y726D01*
X338Y726D01*
X338Y724D01*
X340Y724D01*
X340Y720D01*
X342Y720D01*
X342Y718D01*
X344Y718D01*
X344Y714D01*
X346Y714D01*
X346Y712D01*
X348Y712D01*
X348Y710D01*
X350Y710D01*
X350Y706D01*
X352Y706D01*
X352Y704D01*
X354Y704D01*
X354Y700D01*
X356Y700D01*
X356Y698D01*
X358Y698D01*
X358Y696D01*
X360Y696D01*
X360Y692D01*
X362Y692D01*
X362Y690D01*
X364Y690D01*
X364Y688D01*
X366Y688D01*
X366Y684D01*
X368Y684D01*
X368Y682D01*
X370Y682D01*
X370Y680D01*
X372Y680D01*
X372Y676D01*
X374Y676D01*
X374Y674D01*
X376Y674D01*
X376Y672D01*
X378Y672D01*
X378Y668D01*
X380Y668D01*
X380Y666D01*
X382Y666D01*
X382Y664D01*
X384Y664D01*
X384Y660D01*
X386Y660D01*
X386Y658D01*
X388Y658D01*
X388Y656D01*
X390Y656D01*
X390Y654D01*
X392Y654D01*
X392Y650D01*
X394Y650D01*
X394Y648D01*
X396Y648D01*
X396Y646D01*
X398Y646D01*
X398Y644D01*
X400Y644D01*
X400Y640D01*
X402Y640D01*
X402Y638D01*
X404Y638D01*
X404Y636D01*
X406Y636D01*
X406Y634D01*
X408Y634D01*
X408Y630D01*
X410Y630D01*
X410Y628D01*
X412Y628D01*
X412Y626D01*
X414Y626D01*
X414Y624D01*
X416Y624D01*
X416Y622D01*
X418Y622D01*
X418Y618D01*
X420Y618D01*
X420Y616D01*
X422Y616D01*
X422Y614D01*
X424Y614D01*
X424Y612D01*
X426Y612D01*
X426Y610D01*
X428Y610D01*
X428Y606D01*
X430Y606D01*
X430Y604D01*
X432Y604D01*
X432Y602D01*
X434Y602D01*
X434Y600D01*
X436Y600D01*
X436Y598D01*
X438Y598D01*
X438Y596D01*
X440Y596D01*
X440Y592D01*
X442Y592D01*
X442Y590D01*
X444Y590D01*
X444Y588D01*
X446Y588D01*
X446Y586D01*
X448Y586D01*
X448Y584D01*
X450Y584D01*
X450Y582D01*
X452Y582D01*
X452Y580D01*
X454Y580D01*
X454Y578D01*
X456Y578D01*
X456Y574D01*
X458Y574D01*
X458Y572D01*
X460Y572D01*
X460Y570D01*
X462Y570D01*
X462Y568D01*
X464Y568D01*
X464Y566D01*
X466Y566D01*
X466Y564D01*
X468Y564D01*
X468Y562D01*
X470Y562D01*
X470Y560D01*
X472Y560D01*
X472Y558D01*
X474Y558D01*
X474Y556D01*
X476Y556D01*
X476Y554D01*
X478Y554D01*
X478Y550D01*
X480Y550D01*
X480Y548D01*
X482Y548D01*
X482Y546D01*
X484Y546D01*
X484Y544D01*
X486Y544D01*
X486Y542D01*
X488Y542D01*
X488Y540D01*
X490Y540D01*
X490Y538D01*
X492Y538D01*
X492Y536D01*
X494Y536D01*
X494Y534D01*
X496Y534D01*
X496Y532D01*
X498Y532D01*
X498Y530D01*
X500Y530D01*
X500Y528D01*
X502Y528D01*
X502Y526D01*
X504Y526D01*
X504Y524D01*
X506Y524D01*
X506Y522D01*
X508Y522D01*
X508Y520D01*
X510Y520D01*
X510Y518D01*
X512Y518D01*
X512Y516D01*
X514Y516D01*
X514Y514D01*
X516Y514D01*
X516Y512D01*
X518Y512D01*
X518Y510D01*
X520Y510D01*
X520Y508D01*
X522Y508D01*
X522Y506D01*
X524Y506D01*
X524Y504D01*
X526Y504D01*
X526Y502D01*
X528Y502D01*
X528Y500D01*
X530Y500D01*
X530Y498D01*
X532Y498D01*
X532Y496D01*
X534Y496D01*
X534Y494D01*
X536Y494D01*
X536Y492D01*
X538Y492D01*
X538Y490D01*
X540Y490D01*
X540Y488D01*
X542Y488D01*
X542Y486D01*
X544Y486D01*
X544Y484D01*
X546Y484D01*
X546Y482D01*
X548Y482D01*
X548Y480D01*
X550Y480D01*
X550Y478D01*
X554Y478D01*
X554Y476D01*
X556Y476D01*
X556Y474D01*
X558Y474D01*
X558Y472D01*
X560Y472D01*
X560Y470D01*
X562Y470D01*
X562Y468D01*
X564Y468D01*
X564Y466D01*
X566Y466D01*
X566Y464D01*
X568Y464D01*
X568Y462D01*
X570Y462D01*
X570Y460D01*
X572Y460D01*
X572Y458D01*
X576Y458D01*
X576Y456D01*
X578Y456D01*
X578Y454D01*
X580Y454D01*
X580Y452D01*
X582Y452D01*
X582Y450D01*
X584Y450D01*
X584Y448D01*
X586Y448D01*
X586Y446D01*
X588Y446D01*
X588Y444D01*
X590Y444D01*
X590Y442D01*
X594Y442D01*
X594Y440D01*
X596Y440D01*
X596Y438D01*
X598Y438D01*
X598Y436D01*
X600Y436D01*
X600Y434D01*
X602Y434D01*
X602Y432D01*
X604Y432D01*
X604Y430D01*
X608Y430D01*
X608Y428D01*
X610Y428D01*
X610Y426D01*
X612Y426D01*
X612Y424D01*
X614Y424D01*
X614Y422D01*
X616Y422D01*
X616Y420D01*
X620Y420D01*
X620Y418D01*
X622Y418D01*
X622Y416D01*
X624Y416D01*
X624Y414D01*
X626Y414D01*
X626Y412D01*
X628Y412D01*
X628Y410D01*
X632Y410D01*
X632Y408D01*
X634Y408D01*
X634Y406D01*
X636Y406D01*
X636Y404D01*
X638Y404D01*
X638Y402D01*
X642Y402D01*
X642Y400D01*
X644Y400D01*
X644Y398D01*
X646Y398D01*
X646Y396D01*
X648Y396D01*
X648Y394D01*
X652Y394D01*
X652Y392D01*
X654Y392D01*
X654Y390D01*
X656Y390D01*
X656Y388D01*
X658Y388D01*
X658Y386D01*
X662Y386D01*
X662Y384D01*
X664Y384D01*
X664Y382D01*
X666Y382D01*
X666Y380D01*
X670Y380D01*
X670Y378D01*
X672Y378D01*
X672Y376D01*
X674Y376D01*
X674Y374D01*
X678Y374D01*
X678Y372D01*
X680Y372D01*
X680Y370D01*
X682Y370D01*
X682Y368D01*
X686Y368D01*
X686Y366D01*
X688Y366D01*
X688Y364D01*
X690Y364D01*
X690Y362D01*
X694Y362D01*
X694Y360D01*
X696Y360D01*
X696Y358D01*
X698Y358D01*
X698Y356D01*
X702Y356D01*
X702Y354D01*
X704Y354D01*
X704Y352D01*
X708Y352D01*
X708Y350D01*
X710Y350D01*
X710Y348D01*
X712Y348D01*
X712Y346D01*
X716Y346D01*
X716Y344D01*
X718Y344D01*
X718Y342D01*
X722Y342D01*
X722Y340D01*
X724Y340D01*
X724Y338D01*
X728Y338D01*
X728Y336D01*
X730Y336D01*
X730Y334D01*
X732Y334D01*
X732Y332D01*
X736Y332D01*
X736Y330D01*
X738Y330D01*
X738Y328D01*
X742Y328D01*
X742Y326D01*
X744Y326D01*
X744Y324D01*
X764Y324D01*
X764Y384D01*
X766Y384D01*
X766Y390D01*
X768Y390D01*
X768Y394D01*
X770Y394D01*
X770Y398D01*
X772Y398D01*
X772Y402D01*
X774Y402D01*
X774Y404D01*
X776Y404D01*
X776Y406D01*
X778Y406D01*
X778Y408D01*
X780Y408D01*
X780Y410D01*
X782Y410D01*
X782Y412D01*
X784Y412D01*
X784Y414D01*
X788Y414D01*
X788Y416D01*
X790Y416D01*
X790Y418D01*
X794Y418D01*
X794Y420D01*
X800Y420D01*
X800Y422D01*
X808Y422D01*
X808Y424D01*
X890Y424D01*
X890Y444D01*
X888Y444D01*
X888Y446D01*
X884Y446D01*
X884Y448D01*
X880Y448D01*
X880Y450D01*
X878Y450D01*
X878Y452D01*
X874Y452D01*
X874Y454D01*
X870Y454D01*
X870Y456D01*
X868Y456D01*
X868Y458D01*
X864Y458D01*
X864Y460D01*
X862Y460D01*
X862Y462D01*
X858Y462D01*
X858Y464D01*
X854Y464D01*
X854Y466D01*
X852Y466D01*
X852Y468D01*
X848Y468D01*
X848Y470D01*
X846Y470D01*
X846Y472D01*
X842Y472D01*
X842Y474D01*
X840Y474D01*
X840Y476D01*
X836Y476D01*
X836Y478D01*
X834Y478D01*
X834Y480D01*
X830Y480D01*
X830Y482D01*
X828Y482D01*
X828Y484D01*
X824Y484D01*
X824Y486D01*
X822Y486D01*
X822Y488D01*
X818Y488D01*
X818Y490D01*
X816Y490D01*
X816Y492D01*
X812Y492D01*
X812Y494D01*
X810Y494D01*
X810Y496D01*
X806Y496D01*
X806Y498D01*
X804Y498D01*
X804Y500D01*
X802Y500D01*
X802Y502D01*
X798Y502D01*
X798Y504D01*
X796Y504D01*
X796Y506D01*
X792Y506D01*
X792Y508D01*
X790Y508D01*
X790Y510D01*
X788Y510D01*
X788Y512D01*
X784Y512D01*
X784Y514D01*
X782Y514D01*
X782Y516D01*
X780Y516D01*
X780Y518D01*
X776Y518D01*
X776Y520D01*
X774Y520D01*
X774Y522D01*
X772Y522D01*
X772Y524D01*
X768Y524D01*
X768Y526D01*
X766Y526D01*
X766Y528D01*
X764Y528D01*
X764Y530D01*
X760Y530D01*
X760Y532D01*
X758Y532D01*
X758Y534D01*
X756Y534D01*
X756Y536D01*
X752Y536D01*
X752Y538D01*
X750Y538D01*
X750Y540D01*
X748Y540D01*
X748Y542D01*
X746Y542D01*
X746Y544D01*
X742Y544D01*
X742Y546D01*
X740Y546D01*
X740Y548D01*
X738Y548D01*
X738Y550D01*
X736Y550D01*
X736Y552D01*
X732Y552D01*
X732Y554D01*
X730Y554D01*
X730Y556D01*
X728Y556D01*
X728Y558D01*
X726Y558D01*
X726Y560D01*
X722Y560D01*
X722Y562D01*
X720Y562D01*
X720Y564D01*
X718Y564D01*
X718Y566D01*
X716Y566D01*
X716Y568D01*
X714Y568D01*
X714Y570D01*
X712Y570D01*
X712Y572D01*
X708Y572D01*
X708Y574D01*
X706Y574D01*
X706Y576D01*
X704Y576D01*
X704Y578D01*
X702Y578D01*
X702Y580D01*
X700Y580D01*
X700Y582D01*
X698Y582D01*
X698Y584D01*
X694Y584D01*
X694Y586D01*
X692Y586D01*
X692Y588D01*
X690Y588D01*
X690Y590D01*
X688Y590D01*
X688Y592D01*
X686Y592D01*
X686Y594D01*
X684Y594D01*
X684Y596D01*
X682Y596D01*
X682Y598D01*
X680Y598D01*
X680Y600D01*
X678Y600D01*
X678Y602D01*
X676Y602D01*
X676Y604D01*
X672Y604D01*
X672Y606D01*
X670Y606D01*
X670Y608D01*
X668Y608D01*
X668Y610D01*
X666Y610D01*
X666Y612D01*
X664Y612D01*
X664Y614D01*
X662Y614D01*
X662Y616D01*
X660Y616D01*
X660Y618D01*
X658Y618D01*
X658Y620D01*
X656Y620D01*
X656Y622D01*
X654Y622D01*
X654Y624D01*
X652Y624D01*
X652Y626D01*
X650Y626D01*
X650Y628D01*
X648Y628D01*
X648Y630D01*
X646Y630D01*
X646Y632D01*
X644Y632D01*
X644Y634D01*
X642Y634D01*
X642Y636D01*
X640Y636D01*
X640Y638D01*
X638Y638D01*
X638Y640D01*
X636Y640D01*
X636Y642D01*
X634Y642D01*
X634Y644D01*
X632Y644D01*
X632Y646D01*
X630Y646D01*
X630Y648D01*
X628Y648D01*
X628Y650D01*
X626Y650D01*
X626Y652D01*
X624Y652D01*
X624Y654D01*
X622Y654D01*
X622Y656D01*
X620Y656D01*
X620Y658D01*
X618Y658D01*
X618Y660D01*
X616Y660D01*
X616Y662D01*
X614Y662D01*
X614Y664D01*
X612Y664D01*
X612Y666D01*
X610Y666D01*
X610Y668D01*
X608Y668D01*
X608Y670D01*
X606Y670D01*
X606Y672D01*
X604Y672D01*
X604Y674D01*
X602Y674D01*
X602Y676D01*
X600Y676D01*
X600Y680D01*
X598Y680D01*
X598Y682D01*
X596Y682D01*
X596Y684D01*
X594Y684D01*
X594Y686D01*
X592Y686D01*
X592Y688D01*
X590Y688D01*
X590Y690D01*
X588Y690D01*
X588Y692D01*
X586Y692D01*
X586Y694D01*
X584Y694D01*
X584Y696D01*
X582Y696D01*
X582Y700D01*
X580Y700D01*
X580Y702D01*
X578Y702D01*
X578Y704D01*
X576Y704D01*
X576Y706D01*
X574Y706D01*
X574Y708D01*
X572Y708D01*
X572Y710D01*
X570Y710D01*
X570Y714D01*
X568Y714D01*
X568Y716D01*
X566Y716D01*
X566Y718D01*
X564Y718D01*
X564Y720D01*
X562Y720D01*
X562Y722D01*
X560Y722D01*
X560Y724D01*
X558Y724D01*
X558Y728D01*
X556Y728D01*
X556Y730D01*
X554Y730D01*
X554Y732D01*
X552Y732D01*
X552Y734D01*
X550Y734D01*
X550Y738D01*
X548Y738D01*
X548Y740D01*
X546Y740D01*
X546Y742D01*
X544Y742D01*
X544Y744D01*
X542Y744D01*
X542Y748D01*
X540Y748D01*
X540Y750D01*
X538Y750D01*
X538Y752D01*
X536Y752D01*
X536Y754D01*
X534Y754D01*
X534Y758D01*
X532Y758D01*
X532Y760D01*
X530Y760D01*
X530Y762D01*
X528Y762D01*
X528Y766D01*
X526Y766D01*
X526Y768D01*
X524Y768D01*
X524Y770D01*
X522Y770D01*
X522Y772D01*
X520Y772D01*
X520Y776D01*
X518Y776D01*
X518Y778D01*
X516Y778D01*
X516Y780D01*
X514Y780D01*
X514Y784D01*
X512Y784D01*
X512Y786D01*
X510Y786D01*
X510Y790D01*
X508Y790D01*
X508Y792D01*
X506Y792D01*
X506Y794D01*
X504Y794D01*
X504Y798D01*
X502Y798D01*
X502Y800D01*
X500Y800D01*
X500Y802D01*
X498Y802D01*
X498Y806D01*
X496Y806D01*
X496Y808D01*
X494Y808D01*
X494Y812D01*
X492Y812D01*
X492Y814D01*
X490Y814D01*
X490Y818D01*
X488Y818D01*
X488Y820D01*
X486Y820D01*
X486Y824D01*
X484Y824D01*
X484Y826D01*
X482Y826D01*
X482Y828D01*
X480Y828D01*
X480Y832D01*
X478Y832D01*
X478Y836D01*
X476Y836D01*
X476Y838D01*
X474Y838D01*
X474Y842D01*
X472Y842D01*
X472Y844D01*
X470Y844D01*
X470Y848D01*
X468Y848D01*
X468Y850D01*
X466Y850D01*
X466Y854D01*
X464Y854D01*
X464Y856D01*
X462Y856D01*
X462Y860D01*
X460Y860D01*
X460Y862D01*
X458Y862D01*
X458Y866D01*
X456Y866D01*
X456Y870D01*
X454Y870D01*
X454Y872D01*
X452Y872D01*
X452Y876D01*
X450Y876D01*
X450Y880D01*
X448Y880D01*
X448Y882D01*
X446Y882D01*
X446Y886D01*
X444Y886D01*
X444Y890D01*
X442Y890D01*
X442Y892D01*
X440Y892D01*
X440Y896D01*
X438Y896D01*
X438Y900D01*
X436Y900D01*
X436Y902D01*
X434Y902D01*
X434Y906D01*
X432Y906D01*
X432Y910D01*
X430Y910D01*
X430Y914D01*
X428Y914D01*
X428Y916D01*
X426Y916D01*
X426Y920D01*
X424Y920D01*
X424Y924D01*
X422Y924D01*
X422Y928D01*
X420Y928D01*
X420Y932D01*
X418Y932D01*
X418Y936D01*
X416Y936D01*
X416Y938D01*
X414Y938D01*
X414Y942D01*
X412Y942D01*
X412Y946D01*
X410Y946D01*
X410Y950D01*
X408Y950D01*
X408Y954D01*
X406Y954D01*
X406Y958D01*
X404Y958D01*
X404Y962D01*
X402Y962D01*
X402Y966D01*
X400Y966D01*
X400Y970D01*
X398Y970D01*
X398Y974D01*
X396Y974D01*
X396Y978D01*
X394Y978D01*
X394Y982D01*
X392Y982D01*
X392Y986D01*
X390Y986D01*
X390Y990D01*
X388Y990D01*
X388Y994D01*
X386Y994D01*
X386Y998D01*
X384Y998D01*
X384Y1002D01*
X382Y1002D01*
X382Y1008D01*
X380Y1008D01*
X380Y1012D01*
X378Y1012D01*
X378Y1016D01*
X376Y1016D01*
X376Y1020D01*
X374Y1020D01*
X374Y1026D01*
X372Y1026D01*
X372Y1030D01*
X370Y1030D01*
X370Y1034D01*
X368Y1034D01*
X368Y1038D01*
X366Y1038D01*
X366Y1044D01*
X364Y1044D01*
X364Y1048D01*
X362Y1048D01*
X362Y1054D01*
X360Y1054D01*
X360Y1058D01*
X358Y1058D01*
X358Y1064D01*
X356Y1064D01*
X356Y1068D01*
X354Y1068D01*
X354Y1074D01*
X352Y1074D01*
X352Y1078D01*
X350Y1078D01*
X350Y1084D01*
X348Y1084D01*
X348Y1088D01*
X346Y1088D01*
X346Y1094D01*
X344Y1094D01*
X344Y1100D01*
X342Y1100D01*
X342Y1104D01*
X340Y1104D01*
X340Y1110D01*
X338Y1110D01*
X338Y1116D01*
X336Y1116D01*
X336Y1122D01*
X316Y1122D01*
G37*
D02*
G36*
X2562Y696D02*
X2562Y692D01*
X2560Y692D01*
X2560Y690D01*
X2558Y690D01*
X2558Y688D01*
X2556Y688D01*
X2556Y686D01*
X2554Y686D01*
X2554Y684D01*
X2552Y684D01*
X2552Y682D01*
X2550Y682D01*
X2550Y680D01*
X2548Y680D01*
X2548Y678D01*
X2546Y678D01*
X2546Y676D01*
X2544Y676D01*
X2544Y674D01*
X2542Y674D01*
X2542Y670D01*
X2540Y670D01*
X2540Y668D01*
X2538Y668D01*
X2538Y666D01*
X2536Y666D01*
X2536Y664D01*
X2534Y664D01*
X2534Y662D01*
X2532Y662D01*
X2532Y660D01*
X2530Y660D01*
X2530Y658D01*
X2528Y658D01*
X2528Y656D01*
X2526Y656D01*
X2526Y654D01*
X2524Y654D01*
X2524Y652D01*
X2522Y652D01*
X2522Y650D01*
X2520Y650D01*
X2520Y648D01*
X2518Y648D01*
X2518Y646D01*
X2516Y646D01*
X2516Y644D01*
X2514Y644D01*
X2514Y642D01*
X2512Y642D01*
X2512Y640D01*
X2510Y640D01*
X2510Y638D01*
X2508Y638D01*
X2508Y636D01*
X2506Y636D01*
X2506Y634D01*
X2504Y634D01*
X2504Y632D01*
X2502Y632D01*
X2502Y630D01*
X2500Y630D01*
X2500Y628D01*
X2498Y628D01*
X2498Y626D01*
X2496Y626D01*
X2496Y624D01*
X2494Y624D01*
X2494Y622D01*
X2492Y622D01*
X2492Y620D01*
X2490Y620D01*
X2490Y618D01*
X2488Y618D01*
X2488Y616D01*
X2486Y616D01*
X2486Y614D01*
X2484Y614D01*
X2484Y612D01*
X2482Y612D01*
X2482Y610D01*
X2480Y610D01*
X2480Y608D01*
X2476Y608D01*
X2476Y606D01*
X2474Y606D01*
X2474Y604D01*
X2472Y604D01*
X2472Y602D01*
X2470Y602D01*
X2470Y600D01*
X2468Y600D01*
X2468Y598D01*
X2466Y598D01*
X2466Y596D01*
X2464Y596D01*
X2464Y594D01*
X2462Y594D01*
X2462Y592D01*
X2460Y592D01*
X2460Y590D01*
X2458Y590D01*
X2458Y588D01*
X2454Y588D01*
X2454Y586D01*
X2452Y586D01*
X2452Y584D01*
X2450Y584D01*
X2450Y582D01*
X2448Y582D01*
X2448Y580D01*
X2446Y580D01*
X2446Y578D01*
X2444Y578D01*
X2444Y576D01*
X2442Y576D01*
X2442Y574D01*
X2438Y574D01*
X2438Y572D01*
X2436Y572D01*
X2436Y570D01*
X2434Y570D01*
X2434Y568D01*
X2432Y568D01*
X2432Y566D01*
X2430Y566D01*
X2430Y564D01*
X2428Y564D01*
X2428Y562D01*
X2424Y562D01*
X2424Y560D01*
X2422Y560D01*
X2422Y558D01*
X2420Y558D01*
X2420Y556D01*
X2418Y556D01*
X2418Y554D01*
X2414Y554D01*
X2414Y552D01*
X2412Y552D01*
X2412Y550D01*
X2410Y550D01*
X2410Y548D01*
X2408Y548D01*
X2408Y546D01*
X2404Y546D01*
X2404Y544D01*
X2402Y544D01*
X2402Y542D01*
X2400Y542D01*
X2400Y540D01*
X2398Y540D01*
X2398Y538D01*
X2394Y538D01*
X2394Y536D01*
X2392Y536D01*
X2392Y534D01*
X2390Y534D01*
X2390Y532D01*
X2388Y532D01*
X2388Y530D01*
X2384Y530D01*
X2384Y528D01*
X2382Y528D01*
X2382Y526D01*
X2380Y526D01*
X2380Y524D01*
X2376Y524D01*
X2376Y522D01*
X2374Y522D01*
X2374Y520D01*
X2372Y520D01*
X2372Y518D01*
X2368Y518D01*
X2368Y516D01*
X2366Y516D01*
X2366Y514D01*
X2364Y514D01*
X2364Y512D01*
X2360Y512D01*
X2360Y510D01*
X2358Y510D01*
X2358Y508D01*
X2354Y508D01*
X2354Y506D01*
X2352Y506D01*
X2352Y504D01*
X2350Y504D01*
X2350Y502D01*
X2346Y502D01*
X2346Y500D01*
X2344Y500D01*
X2344Y498D01*
X2340Y498D01*
X2340Y496D01*
X2338Y496D01*
X2338Y494D01*
X2336Y494D01*
X2336Y492D01*
X2332Y492D01*
X2332Y490D01*
X2330Y490D01*
X2330Y488D01*
X2326Y488D01*
X2326Y486D01*
X2324Y486D01*
X2324Y484D01*
X2320Y484D01*
X2320Y482D01*
X2318Y482D01*
X2318Y480D01*
X2314Y480D01*
X2314Y478D01*
X2312Y478D01*
X2312Y476D01*
X2308Y476D01*
X2308Y474D01*
X2306Y474D01*
X2306Y472D01*
X2302Y472D01*
X2302Y470D01*
X2300Y470D01*
X2300Y468D01*
X2296Y468D01*
X2296Y466D01*
X2292Y466D01*
X2292Y464D01*
X2290Y464D01*
X2290Y462D01*
X2286Y462D01*
X2286Y460D01*
X2284Y460D01*
X2284Y458D01*
X2280Y458D01*
X2280Y456D01*
X2276Y456D01*
X2276Y454D01*
X2274Y454D01*
X2274Y452D01*
X2270Y452D01*
X2270Y450D01*
X2266Y450D01*
X2266Y448D01*
X2264Y448D01*
X2264Y446D01*
X2260Y446D01*
X2260Y444D01*
X2256Y444D01*
X2256Y442D01*
X2254Y442D01*
X2254Y440D01*
X2250Y440D01*
X2250Y438D01*
X2246Y438D01*
X2246Y436D01*
X2244Y436D01*
X2244Y434D01*
X2240Y434D01*
X2240Y432D01*
X2236Y432D01*
X2236Y430D01*
X2232Y430D01*
X2232Y428D01*
X2228Y428D01*
X2228Y426D01*
X2226Y426D01*
X2226Y424D01*
X2222Y424D01*
X2222Y422D01*
X2218Y422D01*
X2218Y420D01*
X2214Y420D01*
X2214Y418D01*
X2210Y418D01*
X2210Y416D01*
X2206Y416D01*
X2206Y414D01*
X2202Y414D01*
X2202Y412D01*
X2198Y412D01*
X2198Y410D01*
X2196Y410D01*
X2196Y408D01*
X2192Y408D01*
X2192Y406D01*
X2188Y406D01*
X2188Y404D01*
X2184Y404D01*
X2184Y402D01*
X2180Y402D01*
X2180Y400D01*
X2176Y400D01*
X2176Y398D01*
X2172Y398D01*
X2172Y396D01*
X2168Y396D01*
X2168Y394D01*
X2164Y394D01*
X2164Y392D01*
X2158Y392D01*
X2158Y390D01*
X2154Y390D01*
X2154Y388D01*
X2150Y388D01*
X2150Y386D01*
X2146Y386D01*
X2146Y384D01*
X2142Y384D01*
X2142Y382D01*
X2138Y382D01*
X2138Y380D01*
X2132Y380D01*
X2132Y378D01*
X2128Y378D01*
X2128Y376D01*
X2124Y376D01*
X2124Y374D01*
X2120Y374D01*
X2120Y372D01*
X2114Y372D01*
X2114Y370D01*
X2110Y370D01*
X2110Y368D01*
X2106Y368D01*
X2106Y366D01*
X2100Y366D01*
X2100Y364D01*
X2096Y364D01*
X2096Y362D01*
X2090Y362D01*
X2090Y360D01*
X2086Y360D01*
X2086Y358D01*
X2080Y358D01*
X2080Y356D01*
X2076Y356D01*
X2076Y354D01*
X2070Y354D01*
X2070Y352D01*
X2066Y352D01*
X2066Y350D01*
X2060Y350D01*
X2060Y348D01*
X2054Y348D01*
X2054Y346D01*
X2050Y346D01*
X2050Y344D01*
X2044Y344D01*
X2044Y342D01*
X2038Y342D01*
X2038Y340D01*
X2032Y340D01*
X2032Y338D01*
X2026Y338D01*
X2026Y336D01*
X2022Y336D01*
X2022Y334D01*
X2016Y334D01*
X2016Y332D01*
X2010Y332D01*
X2010Y330D01*
X2004Y330D01*
X2004Y328D01*
X1996Y328D01*
X1996Y326D01*
X1990Y326D01*
X1990Y324D01*
X1984Y324D01*
X1984Y322D01*
X1978Y322D01*
X1978Y320D01*
X1970Y320D01*
X1970Y318D01*
X1964Y318D01*
X1964Y316D01*
X1956Y316D01*
X1956Y314D01*
X1950Y314D01*
X1950Y312D01*
X1942Y312D01*
X1942Y310D01*
X1934Y310D01*
X1934Y308D01*
X1926Y308D01*
X1926Y306D01*
X1918Y306D01*
X1918Y304D01*
X1910Y304D01*
X1910Y302D01*
X1902Y302D01*
X1902Y300D01*
X1894Y300D01*
X1894Y298D01*
X1884Y298D01*
X1884Y296D01*
X1876Y296D01*
X1876Y294D01*
X1866Y294D01*
X1866Y292D01*
X1856Y292D01*
X1856Y290D01*
X1846Y290D01*
X1846Y288D01*
X1834Y288D01*
X1834Y286D01*
X1822Y286D01*
X1822Y284D01*
X1810Y284D01*
X1810Y282D01*
X1796Y282D01*
X1796Y280D01*
X1782Y280D01*
X1782Y278D01*
X1766Y278D01*
X1766Y276D01*
X1750Y276D01*
X1750Y274D01*
X1730Y274D01*
X1730Y272D01*
X1706Y272D01*
X1706Y270D01*
X1674Y270D01*
X1674Y268D01*
X2314Y268D01*
X2314Y270D01*
X2316Y270D01*
X2316Y272D01*
X2320Y272D01*
X2320Y274D01*
X2324Y274D01*
X2324Y276D01*
X2326Y276D01*
X2326Y278D01*
X2330Y278D01*
X2330Y280D01*
X2334Y280D01*
X2334Y282D01*
X2338Y282D01*
X2338Y284D01*
X2340Y284D01*
X2340Y286D01*
X2344Y286D01*
X2344Y288D01*
X2346Y288D01*
X2346Y290D01*
X2350Y290D01*
X2350Y292D01*
X2354Y292D01*
X2354Y294D01*
X2356Y294D01*
X2356Y296D01*
X2360Y296D01*
X2360Y298D01*
X2362Y298D01*
X2362Y300D01*
X2366Y300D01*
X2366Y302D01*
X2370Y302D01*
X2370Y304D01*
X2372Y304D01*
X2372Y306D01*
X2376Y306D01*
X2376Y308D01*
X2378Y308D01*
X2378Y310D01*
X2382Y310D01*
X2382Y312D01*
X2384Y312D01*
X2384Y314D01*
X2388Y314D01*
X2388Y316D01*
X2390Y316D01*
X2390Y318D01*
X2394Y318D01*
X2394Y320D01*
X2396Y320D01*
X2396Y322D01*
X2400Y322D01*
X2400Y324D01*
X2402Y324D01*
X2402Y326D01*
X2406Y326D01*
X2406Y328D01*
X2408Y328D01*
X2408Y330D01*
X2412Y330D01*
X2412Y332D01*
X2414Y332D01*
X2414Y334D01*
X2418Y334D01*
X2418Y336D01*
X2420Y336D01*
X2420Y338D01*
X2424Y338D01*
X2424Y340D01*
X2426Y340D01*
X2426Y342D01*
X2430Y342D01*
X2430Y344D01*
X2432Y344D01*
X2432Y346D01*
X2434Y346D01*
X2434Y348D01*
X2438Y348D01*
X2438Y350D01*
X2440Y350D01*
X2440Y352D01*
X2444Y352D01*
X2444Y354D01*
X2446Y354D01*
X2446Y356D01*
X2448Y356D01*
X2448Y358D01*
X2452Y358D01*
X2452Y360D01*
X2454Y360D01*
X2454Y362D01*
X2456Y362D01*
X2456Y364D01*
X2460Y364D01*
X2460Y366D01*
X2462Y366D01*
X2462Y368D01*
X2464Y368D01*
X2464Y370D01*
X2468Y370D01*
X2468Y372D01*
X2470Y372D01*
X2470Y374D01*
X2472Y374D01*
X2472Y376D01*
X2476Y376D01*
X2476Y378D01*
X2478Y378D01*
X2478Y380D01*
X2480Y380D01*
X2480Y382D01*
X2484Y382D01*
X2484Y384D01*
X2486Y384D01*
X2486Y386D01*
X2488Y386D01*
X2488Y388D01*
X2492Y388D01*
X2492Y390D01*
X2494Y390D01*
X2494Y392D01*
X2496Y392D01*
X2496Y394D01*
X2498Y394D01*
X2498Y396D01*
X2502Y396D01*
X2502Y398D01*
X2504Y398D01*
X2504Y400D01*
X2506Y400D01*
X2506Y402D01*
X2508Y402D01*
X2508Y404D01*
X2512Y404D01*
X2512Y406D01*
X2514Y406D01*
X2514Y408D01*
X2516Y408D01*
X2516Y410D01*
X2518Y410D01*
X2518Y412D01*
X2522Y412D01*
X2522Y414D01*
X2524Y414D01*
X2524Y416D01*
X2526Y416D01*
X2526Y418D01*
X2528Y418D01*
X2528Y420D01*
X2530Y420D01*
X2530Y422D01*
X2534Y422D01*
X2534Y424D01*
X2536Y424D01*
X2536Y426D01*
X2538Y426D01*
X2538Y428D01*
X2540Y428D01*
X2540Y430D01*
X2542Y430D01*
X2542Y432D01*
X2546Y432D01*
X2546Y434D01*
X2548Y434D01*
X2548Y436D01*
X2550Y436D01*
X2550Y438D01*
X2552Y438D01*
X2552Y440D01*
X2554Y440D01*
X2554Y442D01*
X2556Y442D01*
X2556Y444D01*
X2558Y444D01*
X2558Y446D01*
X2562Y446D01*
X2562Y448D01*
X2564Y448D01*
X2564Y450D01*
X2566Y450D01*
X2566Y452D01*
X2568Y452D01*
X2568Y454D01*
X2570Y454D01*
X2570Y456D01*
X2572Y456D01*
X2572Y458D01*
X2574Y458D01*
X2574Y460D01*
X2576Y460D01*
X2576Y462D01*
X2580Y462D01*
X2580Y464D01*
X2582Y464D01*
X2582Y466D01*
X2584Y466D01*
X2584Y468D01*
X2586Y468D01*
X2586Y470D01*
X2588Y470D01*
X2588Y472D01*
X2590Y472D01*
X2590Y474D01*
X2592Y474D01*
X2592Y476D01*
X2594Y476D01*
X2594Y478D01*
X2596Y478D01*
X2596Y480D01*
X2598Y480D01*
X2598Y482D01*
X2600Y482D01*
X2600Y484D01*
X2602Y484D01*
X2602Y486D01*
X2606Y486D01*
X2606Y488D01*
X2608Y488D01*
X2608Y490D01*
X2610Y490D01*
X2610Y492D01*
X2612Y492D01*
X2612Y494D01*
X2614Y494D01*
X2614Y496D01*
X2616Y496D01*
X2616Y498D01*
X2618Y498D01*
X2618Y500D01*
X2620Y500D01*
X2620Y502D01*
X2622Y502D01*
X2622Y504D01*
X2624Y504D01*
X2624Y506D01*
X2626Y506D01*
X2626Y508D01*
X2628Y508D01*
X2628Y510D01*
X2630Y510D01*
X2630Y512D01*
X2632Y512D01*
X2632Y514D01*
X2634Y514D01*
X2634Y516D01*
X2636Y516D01*
X2636Y518D01*
X2638Y518D01*
X2638Y520D01*
X2640Y520D01*
X2640Y522D01*
X2642Y522D01*
X2642Y524D01*
X2644Y524D01*
X2644Y526D01*
X2646Y526D01*
X2646Y528D01*
X2648Y528D01*
X2648Y530D01*
X2650Y530D01*
X2650Y532D01*
X2652Y532D01*
X2652Y534D01*
X2654Y534D01*
X2654Y536D01*
X2656Y536D01*
X2656Y538D01*
X2658Y538D01*
X2658Y540D01*
X2660Y540D01*
X2660Y560D01*
X2628Y560D01*
X2628Y562D01*
X2620Y562D01*
X2620Y564D01*
X2614Y564D01*
X2614Y566D01*
X2610Y566D01*
X2610Y568D01*
X2606Y568D01*
X2606Y570D01*
X2604Y570D01*
X2604Y572D01*
X2602Y572D01*
X2602Y574D01*
X2600Y574D01*
X2600Y576D01*
X2598Y576D01*
X2598Y578D01*
X2596Y578D01*
X2596Y580D01*
X2594Y580D01*
X2594Y582D01*
X2592Y582D01*
X2592Y584D01*
X2590Y584D01*
X2590Y588D01*
X2588Y588D01*
X2588Y592D01*
X2586Y592D01*
X2586Y598D01*
X2584Y598D01*
X2584Y608D01*
X2582Y608D01*
X2582Y696D01*
X2562Y696D01*
G37*
D02*
G36*
X942Y404D02*
X942Y392D01*
X944Y392D01*
X944Y386D01*
X946Y386D01*
X946Y376D01*
X948Y376D01*
X948Y288D01*
X946Y288D01*
X946Y278D01*
X944Y278D01*
X944Y272D01*
X942Y272D01*
X942Y268D01*
X1474Y268D01*
X1474Y270D01*
X1442Y270D01*
X1442Y272D01*
X1418Y272D01*
X1418Y274D01*
X1398Y274D01*
X1398Y276D01*
X1380Y276D01*
X1380Y278D01*
X1364Y278D01*
X1364Y280D01*
X1350Y280D01*
X1350Y282D01*
X1338Y282D01*
X1338Y284D01*
X1326Y284D01*
X1326Y286D01*
X1314Y286D01*
X1314Y288D01*
X1302Y288D01*
X1302Y290D01*
X1292Y290D01*
X1292Y292D01*
X1282Y292D01*
X1282Y294D01*
X1272Y294D01*
X1272Y296D01*
X1264Y296D01*
X1264Y298D01*
X1254Y298D01*
X1254Y300D01*
X1246Y300D01*
X1246Y302D01*
X1236Y302D01*
X1236Y304D01*
X1228Y304D01*
X1228Y306D01*
X1220Y306D01*
X1220Y308D01*
X1214Y308D01*
X1214Y310D01*
X1206Y310D01*
X1206Y312D01*
X1198Y312D01*
X1198Y314D01*
X1190Y314D01*
X1190Y316D01*
X1184Y316D01*
X1184Y318D01*
X1178Y318D01*
X1178Y320D01*
X1170Y320D01*
X1170Y322D01*
X1164Y322D01*
X1164Y324D01*
X1158Y324D01*
X1158Y326D01*
X1150Y326D01*
X1150Y328D01*
X1144Y328D01*
X1144Y330D01*
X1138Y330D01*
X1138Y332D01*
X1132Y332D01*
X1132Y334D01*
X1126Y334D01*
X1126Y336D01*
X1120Y336D01*
X1120Y338D01*
X1114Y338D01*
X1114Y340D01*
X1110Y340D01*
X1110Y342D01*
X1104Y342D01*
X1104Y344D01*
X1098Y344D01*
X1098Y346D01*
X1092Y346D01*
X1092Y348D01*
X1088Y348D01*
X1088Y350D01*
X1082Y350D01*
X1082Y352D01*
X1076Y352D01*
X1076Y354D01*
X1072Y354D01*
X1072Y356D01*
X1066Y356D01*
X1066Y358D01*
X1062Y358D01*
X1062Y360D01*
X1056Y360D01*
X1056Y362D01*
X1052Y362D01*
X1052Y364D01*
X1048Y364D01*
X1048Y366D01*
X1042Y366D01*
X1042Y368D01*
X1038Y368D01*
X1038Y370D01*
X1032Y370D01*
X1032Y372D01*
X1028Y372D01*
X1028Y374D01*
X1024Y374D01*
X1024Y376D01*
X1020Y376D01*
X1020Y378D01*
X1014Y378D01*
X1014Y380D01*
X1010Y380D01*
X1010Y382D01*
X1006Y382D01*
X1006Y384D01*
X1002Y384D01*
X1002Y386D01*
X998Y386D01*
X998Y388D01*
X992Y388D01*
X992Y390D01*
X988Y390D01*
X988Y392D01*
X984Y392D01*
X984Y394D01*
X980Y394D01*
X980Y396D01*
X976Y396D01*
X976Y398D01*
X972Y398D01*
X972Y400D01*
X968Y400D01*
X968Y402D01*
X964Y402D01*
X964Y404D01*
X942Y404D01*
G37*
D02*
G36*
X940Y268D02*
X940Y266D01*
X2310Y266D01*
X2310Y268D01*
X940Y268D01*
G37*
D02*
G36*
X940Y268D02*
X940Y266D01*
X2310Y266D01*
X2310Y268D01*
X940Y268D01*
G37*
D02*
G36*
X940Y266D02*
X940Y264D01*
X938Y264D01*
X938Y262D01*
X936Y262D01*
X936Y258D01*
X934Y258D01*
X934Y256D01*
X932Y256D01*
X932Y254D01*
X1864Y254D01*
X1864Y252D01*
X1876Y252D01*
X1876Y250D01*
X1882Y250D01*
X1882Y248D01*
X1886Y248D01*
X1886Y246D01*
X1890Y246D01*
X1890Y244D01*
X1894Y244D01*
X1894Y242D01*
X1896Y242D01*
X1896Y240D01*
X1898Y240D01*
X1898Y238D01*
X1900Y238D01*
X1900Y236D01*
X1902Y236D01*
X1902Y234D01*
X1904Y234D01*
X1904Y232D01*
X1906Y232D01*
X1906Y228D01*
X1908Y228D01*
X1908Y226D01*
X1910Y226D01*
X1910Y220D01*
X1912Y220D01*
X1912Y216D01*
X1914Y216D01*
X1914Y206D01*
X1916Y206D01*
X1916Y112D01*
X1938Y112D01*
X1938Y114D01*
X1944Y114D01*
X1944Y116D01*
X1952Y116D01*
X1952Y118D01*
X1958Y118D01*
X1958Y120D01*
X1966Y120D01*
X1966Y122D01*
X1972Y122D01*
X1972Y124D01*
X1980Y124D01*
X1980Y126D01*
X1986Y126D01*
X1986Y128D01*
X1992Y128D01*
X1992Y130D01*
X1998Y130D01*
X1998Y132D01*
X2006Y132D01*
X2006Y134D01*
X2012Y134D01*
X2012Y136D01*
X2018Y136D01*
X2018Y138D01*
X2024Y138D01*
X2024Y140D01*
X2030Y140D01*
X2030Y142D01*
X2036Y142D01*
X2036Y144D01*
X2042Y144D01*
X2042Y146D01*
X2048Y146D01*
X2048Y148D01*
X2052Y148D01*
X2052Y150D01*
X2058Y150D01*
X2058Y152D01*
X2064Y152D01*
X2064Y154D01*
X2070Y154D01*
X2070Y156D01*
X2076Y156D01*
X2076Y158D01*
X2080Y158D01*
X2080Y160D01*
X2086Y160D01*
X2086Y162D01*
X2092Y162D01*
X2092Y164D01*
X2096Y164D01*
X2096Y166D01*
X2102Y166D01*
X2102Y168D01*
X2106Y168D01*
X2106Y170D01*
X2112Y170D01*
X2112Y172D01*
X2116Y172D01*
X2116Y174D01*
X2122Y174D01*
X2122Y176D01*
X2126Y176D01*
X2126Y178D01*
X2132Y178D01*
X2132Y180D01*
X2136Y180D01*
X2136Y182D01*
X2140Y182D01*
X2140Y184D01*
X2146Y184D01*
X2146Y186D01*
X2150Y186D01*
X2150Y188D01*
X2154Y188D01*
X2154Y190D01*
X2160Y190D01*
X2160Y192D01*
X2164Y192D01*
X2164Y194D01*
X2168Y194D01*
X2168Y196D01*
X2172Y196D01*
X2172Y198D01*
X2178Y198D01*
X2178Y200D01*
X2182Y200D01*
X2182Y202D01*
X2186Y202D01*
X2186Y204D01*
X2190Y204D01*
X2190Y206D01*
X2194Y206D01*
X2194Y208D01*
X2198Y208D01*
X2198Y210D01*
X2202Y210D01*
X2202Y212D01*
X2208Y212D01*
X2208Y214D01*
X2212Y214D01*
X2212Y216D01*
X2216Y216D01*
X2216Y218D01*
X2220Y218D01*
X2220Y220D01*
X2224Y220D01*
X2224Y222D01*
X2228Y222D01*
X2228Y224D01*
X2232Y224D01*
X2232Y226D01*
X2236Y226D01*
X2236Y228D01*
X2240Y228D01*
X2240Y230D01*
X2244Y230D01*
X2244Y232D01*
X2248Y232D01*
X2248Y234D01*
X2252Y234D01*
X2252Y236D01*
X2256Y236D01*
X2256Y238D01*
X2258Y238D01*
X2258Y240D01*
X2262Y240D01*
X2262Y242D01*
X2266Y242D01*
X2266Y244D01*
X2270Y244D01*
X2270Y246D01*
X2274Y246D01*
X2274Y248D01*
X2278Y248D01*
X2278Y250D01*
X2282Y250D01*
X2282Y252D01*
X2284Y252D01*
X2284Y254D01*
X2288Y254D01*
X2288Y256D01*
X2292Y256D01*
X2292Y258D01*
X2296Y258D01*
X2296Y260D01*
X2300Y260D01*
X2300Y262D01*
X2302Y262D01*
X2302Y264D01*
X2306Y264D01*
X2306Y266D01*
X940Y266D01*
G37*
D02*
G36*
X930Y254D02*
X930Y252D01*
X928Y252D01*
X928Y250D01*
X924Y250D01*
X924Y248D01*
X922Y248D01*
X922Y246D01*
X918Y246D01*
X918Y244D01*
X916Y244D01*
X916Y224D01*
X920Y224D01*
X920Y222D01*
X924Y222D01*
X924Y220D01*
X928Y220D01*
X928Y218D01*
X932Y218D01*
X932Y216D01*
X936Y216D01*
X936Y214D01*
X940Y214D01*
X940Y212D01*
X944Y212D01*
X944Y210D01*
X948Y210D01*
X948Y208D01*
X954Y208D01*
X954Y206D01*
X958Y206D01*
X958Y204D01*
X962Y204D01*
X962Y202D01*
X966Y202D01*
X966Y200D01*
X970Y200D01*
X970Y198D01*
X974Y198D01*
X974Y196D01*
X980Y196D01*
X980Y194D01*
X984Y194D01*
X984Y192D01*
X988Y192D01*
X988Y190D01*
X992Y190D01*
X992Y188D01*
X998Y188D01*
X998Y186D01*
X1002Y186D01*
X1002Y184D01*
X1006Y184D01*
X1006Y182D01*
X1012Y182D01*
X1012Y180D01*
X1016Y180D01*
X1016Y178D01*
X1022Y178D01*
X1022Y176D01*
X1026Y176D01*
X1026Y174D01*
X1032Y174D01*
X1032Y172D01*
X1036Y172D01*
X1036Y170D01*
X1042Y170D01*
X1042Y168D01*
X1046Y168D01*
X1046Y166D01*
X1052Y166D01*
X1052Y164D01*
X1056Y164D01*
X1056Y162D01*
X1062Y162D01*
X1062Y160D01*
X1068Y160D01*
X1068Y158D01*
X1072Y158D01*
X1072Y156D01*
X1078Y156D01*
X1078Y154D01*
X1084Y154D01*
X1084Y152D01*
X1090Y152D01*
X1090Y150D01*
X1094Y150D01*
X1094Y148D01*
X1100Y148D01*
X1100Y146D01*
X1106Y146D01*
X1106Y144D01*
X1112Y144D01*
X1112Y142D01*
X1118Y142D01*
X1118Y140D01*
X1124Y140D01*
X1124Y138D01*
X1130Y138D01*
X1130Y136D01*
X1136Y136D01*
X1136Y134D01*
X1142Y134D01*
X1142Y132D01*
X1148Y132D01*
X1148Y130D01*
X1156Y130D01*
X1156Y128D01*
X1162Y128D01*
X1162Y126D01*
X1168Y126D01*
X1168Y124D01*
X1176Y124D01*
X1176Y122D01*
X1182Y122D01*
X1182Y120D01*
X1188Y120D01*
X1188Y118D01*
X1196Y118D01*
X1196Y116D01*
X1204Y116D01*
X1204Y114D01*
X1210Y114D01*
X1210Y112D01*
X1218Y112D01*
X1218Y110D01*
X1226Y110D01*
X1226Y108D01*
X1234Y108D01*
X1234Y106D01*
X1242Y106D01*
X1242Y104D01*
X1250Y104D01*
X1250Y102D01*
X1258Y102D01*
X1258Y100D01*
X1268Y100D01*
X1268Y98D01*
X1276Y98D01*
X1276Y96D01*
X1286Y96D01*
X1286Y94D01*
X1294Y94D01*
X1294Y92D01*
X1304Y92D01*
X1304Y90D01*
X1314Y90D01*
X1314Y88D01*
X1324Y88D01*
X1324Y86D01*
X1336Y86D01*
X1336Y84D01*
X1346Y84D01*
X1346Y82D01*
X1358Y82D01*
X1358Y80D01*
X1372Y80D01*
X1372Y78D01*
X1384Y78D01*
X1384Y76D01*
X1398Y76D01*
X1398Y74D01*
X1414Y74D01*
X1414Y72D01*
X1430Y72D01*
X1430Y70D01*
X1446Y70D01*
X1446Y68D01*
X1468Y68D01*
X1468Y66D01*
X1490Y66D01*
X1490Y64D01*
X1518Y64D01*
X1518Y62D01*
X1560Y62D01*
X1560Y60D01*
X1588Y60D01*
X1588Y62D01*
X1628Y62D01*
X1628Y64D01*
X1658Y64D01*
X1658Y66D01*
X1680Y66D01*
X1680Y68D01*
X1700Y68D01*
X1700Y70D01*
X1718Y70D01*
X1718Y72D01*
X1734Y72D01*
X1734Y74D01*
X1740Y74D01*
X1740Y94D01*
X1738Y94D01*
X1738Y98D01*
X1736Y98D01*
X1736Y102D01*
X1734Y102D01*
X1734Y108D01*
X1732Y108D01*
X1732Y214D01*
X1734Y214D01*
X1734Y220D01*
X1736Y220D01*
X1736Y224D01*
X1738Y224D01*
X1738Y228D01*
X1740Y228D01*
X1740Y230D01*
X1742Y230D01*
X1742Y234D01*
X1744Y234D01*
X1744Y236D01*
X1746Y236D01*
X1746Y238D01*
X1748Y238D01*
X1748Y240D01*
X1750Y240D01*
X1750Y242D01*
X1754Y242D01*
X1754Y244D01*
X1756Y244D01*
X1756Y246D01*
X1760Y246D01*
X1760Y248D01*
X1764Y248D01*
X1764Y250D01*
X1770Y250D01*
X1770Y252D01*
X1784Y252D01*
X1784Y254D01*
X930Y254D01*
G37*
D02*
G04 End of Copper1*
M02*